<svg xmlns="http://www.w3.org/2000/svg" width="81.05" height="72.587" viewBox="0 0 81.05 72.587">
  <g id="error" transform="translate(0 -0.426)">
    <path id="Path_17" data-name="Path 17" d="M71.708,73.013H9.341A9.294,9.294,0,0,1,1.263,59.066L32.448,5.078A9.328,9.328,0,0,1,48.6,5.1L79.786,59.066a9.293,9.293,0,0,1-8.078,13.946ZM40.507,2.989A6.675,6.675,0,0,0,34.666,6.36L3.482,60.348a6.732,6.732,0,0,0,5.858,10.1H71.708a6.732,6.732,0,0,0,5.858-10.1L46.382,6.382h0A6.712,6.712,0,0,0,40.507,2.989Zm0,0" transform="translate(0)" fill="#969696"/>
    <path id="Path_18" data-name="Path 18" d="M197.177,294.276a5.212,5.212,0,1,1,5.212-5.212A5.218,5.218,0,0,1,197.177,294.276Zm0-7.861a2.65,2.65,0,1,0,2.65,2.65A2.652,2.652,0,0,0,197.177,286.415Zm0,0" transform="translate(-155.937 -230.232)" fill="#969696"/>
    <path id="Path_19" data-name="Path 19" d="M195.544,129.5a4.014,4.014,0,0,1-3.985-3.7l-1.588-21.043a5.59,5.59,0,1,1,11.147,0L199.53,125.8A4.015,4.015,0,0,1,195.544,129.5Zm0-28.187a3.026,3.026,0,0,0-3.018,3.256l1.588,21.043a1.434,1.434,0,0,0,2.86,0l1.588-21.043a3.026,3.026,0,0,0-3.018-3.256Zm0,0" transform="translate(-154.304 -79.871)" fill="#969696"/>
  </g>
</svg>
