<svg xmlns="http://www.w3.org/2000/svg" width="79.05" height="76.498" viewBox="0 0 79.05 76.498">
  <g id="graph" transform="translate(0 -8.2)">
    <g id="Group_23" data-name="Group 23" transform="translate(0 8.2)">
      <g id="Group_22" data-name="Group 22" transform="translate(0 0)">
        <path id="Path_20" data-name="Path 20" d="M10.193,74.506V8.2H7.656v5.1H3.828v2.552H7.656v5.088H3.828V23.5H7.656v5.1H3.828v2.552H7.656v5.1H3.828v2.536H7.656v5.1H3.828v2.552H7.656v5.1H3.828v2.552H7.656v5.088H3.828v2.552H7.656v5.1H3.828V69.4H7.656v5.1H0v2.536H7.656V84.7h2.536V77.042h6.38V80.87h2.552V77.042h5.1V80.87h2.552V77.042h5.088V80.87h2.552V77.042h5.1V80.87h2.552V77.042h5.1V80.87h2.536V77.042h5.1V80.87h2.552V77.042h5.1V80.87H65.03V77.042h5.088V80.87H72.67V77.042h6.38V74.506Z" transform="translate(0 -8.2)" fill="#969696"/>
      </g>
    </g>
    <g id="Group_25" data-name="Group 25" transform="translate(16.588 55.381)">
      <g id="Group_24" data-name="Group 24">
        <path id="Path_21" data-name="Path 21" d="M106.6,311.4v17.849h10.193V311.4Zm7.64,15.3h-5.1V313.952h5.1Z" transform="translate(-106.6 -311.4)" fill="#969696"/>
      </g>
    </g>
    <g id="Group_27" data-name="Group 27" transform="translate(31.869 34.981)">
      <g id="Group_26" data-name="Group 26">
        <path id="Path_22" data-name="Path 22" d="M204.8,180.3v38.249h10.193V180.3Zm7.656,35.682h-5.1V182.836h5.1Z" transform="translate(-204.8 -180.3)" fill="#969696"/>
      </g>
    </g>
    <g id="Group_29" data-name="Group 29" transform="translate(47.181 45.173)">
      <g id="Group_28" data-name="Group 28">
        <path id="Path_23" data-name="Path 23" d="M303.2,245.8v28.057h10.193V245.8Zm7.641,25.5h-5.1V248.352h5.1Z" transform="translate(-303.2 -245.8)" fill="#969696"/>
      </g>
    </g>
    <g id="Group_31" data-name="Group 31" transform="translate(62.478 24.773)">
      <g id="Group_30" data-name="Group 30">
        <path id="Path_24" data-name="Path 24" d="M401.5,114.7v48.457h10.193V114.7Zm7.656,45.905h-5.1V117.252h5.1Z" transform="translate(-401.5 -114.7)" fill="#969696"/>
      </g>
    </g>
    <g id="Group_33" data-name="Group 33" transform="translate(20.774 8.2)">
      <g id="Group_32" data-name="Group 32" transform="translate(0 0)">
        <path id="Path_25" data-name="Path 25" d="M177.756,8.2v2.552h3.3L165,26.8,149.7,11.5,133.5,27.7l1.805,1.805L149.7,15.109l15.3,15.3,17.849-17.849v3.3H185.4V8.2Z" transform="translate(-133.5 -8.2)" fill="#969696"/>
      </g>
    </g>
  </g>
</svg>
