<svg id="performance" xmlns="http://www.w3.org/2000/svg" width="55.967" height="73.001" viewBox="0 0 55.967 73.001">
  <path id="Path_26" data-name="Path 26" d="M27.984,200A28.015,28.015,0,0,0,0,227.984,1.217,1.217,0,0,0,1.217,229.2H14.6a1.217,1.217,0,0,0,1.217-1.217,12.167,12.167,0,0,1,22.92-5.677L30.7,225.568a3.643,3.643,0,1,0,.921,2.256l8.036-3.262a12.114,12.114,0,0,1,.492,3.423,1.217,1.217,0,0,0,1.217,1.217H54.751a1.217,1.217,0,0,0,1.217-1.217A28.015,28.015,0,0,0,27.984,200Zm.457,29.111a1.218,1.218,0,1,1,.016-2.252,1.2,1.2,0,0,1,.653.663,1.216,1.216,0,0,1-.669,1.589Zm-15.007-2.344H2.461A25.442,25.442,0,0,1,9.1,210.82l7.75,7.75A14.521,14.521,0,0,0,13.435,226.767Zm5.137-9.916-7.75-7.75a25.425,25.425,0,0,1,15.946-6.608v10.95A14.509,14.509,0,0,0,18.572,216.851ZM29.2,213.442v-10.95A25.425,25.425,0,0,1,45.146,209.1l-7.75,7.75A14.51,14.51,0,0,0,29.2,213.442Zm13.332,13.325a14.417,14.417,0,0,0-.622-3.122l5.7-2.312-.915-2.255L41,221.391a14.587,14.587,0,0,0-1.883-2.818l7.75-7.75a25.442,25.442,0,0,1,6.638,15.945Zm0,0" transform="translate(0 -169.583)" fill="#969696"/>
  <path id="Path_27" data-name="Path 27" d="M75.8,414.083a2.434,2.434,0,0,1-2.433,2.433h-36.5a2.434,2.434,0,0,1-2.433-2.433V408H32v6.083a4.867,4.867,0,0,0,4.867,4.867h36.5a4.867,4.867,0,0,0,4.867-4.867V408H75.8Zm0,0" transform="translate(-27.133 -345.949)" fill="#969696"/>
  <path id="Path_28" data-name="Path 28" d="M78.234,36.5V4.867A4.867,4.867,0,0,0,73.367,0h-36.5A4.867,4.867,0,0,0,32,4.867V36.5h2.433V4.867a2.433,2.433,0,0,1,2.433-2.433h36.5A2.433,2.433,0,0,1,75.8,4.867V36.5Zm0,0" transform="translate(-27.133)" fill="#969696"/>
  <path id="Path_29" data-name="Path 29" d="M160,32h2.433v2.433H160Zm0,0" transform="translate(-135.666 -27.133)" fill="#969696"/>
  <path id="Path_30" data-name="Path 30" d="M192,32h2.433v2.433H192Zm0,0" transform="translate(-162.8 -27.133)" fill="#969696"/>
  <path id="Path_31" data-name="Path 31" d="M176,432h2.433v2.433H176Zm0,0" transform="translate(-149.233 -366.299)" fill="#969696"/>
  <path id="Path_32" data-name="Path 32" d="M98.767,71.3H74.433V68.867H87.817V66.433H74.433V64H72V83.467h2.433V78.6H93.9V76.167H74.433V73.733H98.767Zm0,0" transform="translate(-61.05 -54.267)" fill="#969696"/>
  <path id="Path_33" data-name="Path 33" d="M192,80h2.433v2.433H192Zm0,0" transform="translate(-162.8 -67.833)" fill="#969696"/>
  <path id="Path_34" data-name="Path 34" d="M232,144h2.433v2.433H232Zm0,0" transform="translate(-196.716 -122.1)" fill="#969696"/>
  <path id="Path_35" data-name="Path 35" d="M264,112h2.433v2.433H264Zm0,0" transform="translate(-223.849 -94.966)" fill="#969696"/>
</svg>
