<svg xmlns="http://www.w3.org/2000/svg" width="81.05" height="59.478" viewBox="0 0 81.05 59.478">
  <path id="Path_7" data-name="Path 7" d="M79.863,193.378H75.975V177.059a3.723,3.723,0,0,0-2.456-6.522H65.751l-1.2-19.19a1.187,1.187,0,0,0-1.185-1.113H58.291a1.187,1.187,0,0,0-1.185,1.113l-1.2,19.19H53.061l-1.2-19.19a1.187,1.187,0,0,0-1.185-1.113H45.6a1.187,1.187,0,0,0-1.185,1.113l-1.2,19.19H40.372l-1.2-19.19a1.187,1.187,0,0,0-1.185-1.113H32.911a1.187,1.187,0,0,0-1.185,1.113l-1.2,19.19H27.22l-.735-33.1a1.187,1.187,0,0,0-1.187-1.161H17.684a1.187,1.187,0,0,0-1.187,1.161l-.848,38.177H6.263a3.723,3.723,0,0,0-2.456,6.522v11.243H1.187a1.187,1.187,0,1,0,0,2.375H79.863a1.187,1.187,0,1,0,0-2.375ZM15.536,180.689h-4.2a1.187,1.187,0,0,0,0,2.375h4.143l-.229,10.315H6.181V183.061l.082,0a1.187,1.187,0,1,0,0-2.375,1.351,1.351,0,0,1,0-2.7H15.6Zm43.87-28.081h2.845l1.121,17.929H58.285Zm-12.69,0h2.845l1.121,17.929H45.6Zm-12.69,0h2.845l1.12,17.929H32.906ZM20.3,193.378H17.629l1.216-54.729h5.292l.709,31.888H22.76a3.723,3.723,0,0,0-2.456,6.522Zm53.215-17.766H70.98a1.187,1.187,0,1,0,0,2.375h2.538l.082,0v15.393H22.678V177.985l.082,0H65.905a1.187,1.187,0,0,0,0-2.375H22.76a1.351,1.351,0,1,1,0-2.7H73.518a1.351,1.351,0,1,1,0,2.7Z" transform="translate(0 -136.275)" fill="#969696"/>
</svg>
