<svg xmlns="http://www.w3.org/2000/svg" width="63.581" height="73.001" viewBox="0 0 63.581 73.001">
  <g id="teacher" transform="translate(-5 -0.999)">
    <path id="Path_50" data-name="Path 50" d="M37.419,32H35.064a2.355,2.355,0,1,1-4.71,0H28a4.71,4.71,0,1,0,9.419,0Z" transform="translate(4.081 5.5)" fill="#969696"/>
    <path id="Path_51" data-name="Path 51" d="M56.951,55.5,44.872,50.559a3.518,3.518,0,0,1-2.195-3.27v-.845a21.791,21.791,0,0,0,7.958-10.122h.284a5.894,5.894,0,0,0,5.887-5.887V21.015a20.016,20.016,0,1,0-40.032,0v9.419a5.894,5.894,0,0,0,5.887,5.887h.284A21.8,21.8,0,0,0,30.9,46.445v.845a3.516,3.516,0,0,1-2.195,3.269L16.629,55.5A18.649,18.649,0,0,0,5,72.823V74H68.58V72.823A18.647,18.647,0,0,0,56.951,55.5Zm-12.97-2.763,1.763.722-3.389,6.778-3.9-3.9,4.3-4.3a5.9,5.9,0,0,0,1.227.7Zm-5.8-28.19H35.4a3.527,3.527,0,0,0-3.316-2.355H25.046a5.863,5.863,0,0,1,4.679-2.355h7.85a5.923,5.923,0,0,0,3.532-1.177l2.04-1.531a4.121,4.121,0,0,1,6.594,3.3V22.41a3.48,3.48,0,0,0-1.176-.217H41.5a3.527,3.527,0,0,0-3.316,2.355ZM23.839,25.726a1.179,1.179,0,0,1,1.177-1.177h7.064a1.179,1.179,0,0,1,1.177,1.177v2.355a1.179,1.179,0,0,1-1.177,1.177H25.016a1.179,1.179,0,0,1-1.177-1.177Zm16.484,0A1.179,1.179,0,0,1,41.5,24.549h7.064a1.179,1.179,0,0,1,1.177,1.177v2.355a1.179,1.179,0,0,1-1.177,1.177H41.5a1.179,1.179,0,0,1-1.177-1.177Zm11.084,8.192a21.868,21.868,0,0,0,.69-5.424V27.12a3.513,3.513,0,0,1-.69,6.8ZM36.79,3.355A17.681,17.681,0,0,1,54.451,21.016v4.74A5.83,5.83,0,0,0,52.1,24.669V20.428a6.476,6.476,0,0,0-10.361-5.181l-2.04,1.531a3.557,3.557,0,0,1-2.121.706H29.726a8.25,8.25,0,0,0-8.165,7.175,5.818,5.818,0,0,0-2.431,1.1V21.016A17.681,17.681,0,0,1,36.79,3.355ZM19.129,30.436a3.527,3.527,0,0,1,2.355-3.316v1.374a21.868,21.868,0,0,0,.69,5.424A3.527,3.527,0,0,1,19.129,30.436Zm4.939,1.031a3.458,3.458,0,0,0,.948.146h7.064a3.537,3.537,0,0,0,3.532-3.532V26.9h2.355v1.177A3.537,3.537,0,0,0,41.5,31.613h7.064a3.458,3.458,0,0,0,.948-.146A19.451,19.451,0,0,1,36.79,46.851,19.451,19.451,0,0,1,24.068,31.467Zm12.35,17.747.372.124.372-.124a22.006,22.006,0,0,0,3.2-1.356,5.854,5.854,0,0,0,.8,2.444L36.79,54.674,32.417,50.3a5.854,5.854,0,0,0,.8-2.444A22.024,22.024,0,0,0,36.418,49.214ZM29.6,52.738a5.956,5.956,0,0,0,1.227-.7l4.3,4.3-3.9,3.9L27.837,53.46ZM56.806,71.645V64.581H54.451v7.064H37.968V69.29H35.613v2.355H19.129V64.581H16.774v7.064H7.4A16.3,16.3,0,0,1,17.521,57.68l8.13-3.326,4.93,9.86L36.79,58,43,64.213l4.93-9.86,8.131,3.326A16.3,16.3,0,0,1,66.186,71.644H56.806Z" fill="#969696"/>
    <path id="Path_52" data-name="Path 52" d="M31,51h2.355v2.355H31Z" transform="translate(4.613 8.871)" fill="#969696"/>
    <path id="Path_53" data-name="Path 53" d="M31,55h2.355v2.355H31Z" transform="translate(4.613 9.581)" fill="#969696"/>
  </g>
</svg>
