<svg id="whatsapp" xmlns="http://www.w3.org/2000/svg" width="23.851" height="23.851" viewBox="0 0 23.851 23.851">
  <path id="Path_1" data-name="Path 1" d="M11.928,0h-.006A11.918,11.918,0,0,0,2.27,18.915L.784,23.346,5.368,21.88A11.923,11.923,0,1,0,11.928,0Z" fill="#dfdeda"/>
  <path id="Path_2" data-name="Path 2" d="M121.135,128.474a3.365,3.365,0,0,1-2.34,1.683c-.623.133-1.437.239-4.177-.9-3.5-1.452-5.762-5.013-5.937-5.244a6.811,6.811,0,0,1-1.416-3.6,3.807,3.807,0,0,1,1.219-2.9,1.733,1.733,0,0,1,1.219-.428c.148,0,.28.007.4.013.35.015.526.036.757.589.288.693.988,2.4,1.072,2.58a.71.71,0,0,1,.051.645,2.061,2.061,0,0,1-.386.547c-.176.2-.343.358-.519.575-.161.189-.343.392-.14.742a10.585,10.585,0,0,0,1.935,2.4,8.768,8.768,0,0,0,2.8,1.725.754.754,0,0,0,.841-.133,14.429,14.429,0,0,0,.932-1.234.666.666,0,0,1,.856-.259c.322.112,2.026.954,2.376,1.128s.581.259.666.407A2.97,2.97,0,0,1,121.135,128.474Z" transform="translate(-102.267 -111.634)" fill="#fafafa"/>
</svg>
