<svg version="1.1" xmlns="http://www.w3.org/2000/svg" xmlns:xlink="http://www.w3.org/1999/xlink" x="0px" y="0px" width="600px" height="188px" style="enable-background:new 0 0 446 134.001;" xml:space="preserve">
    <g fill="#fff"><path d="m7.83 119.76a1.88 1.88 0 0 1 -3.24.91c-3.41-2.62-5.54-6.38-4.16-15.2.5-3 2.61-8.38 5-15l2.63-6.53c6.57-15.94 15.7-35.94 22.18-47.72l11.65.05c.2 3.67-.75 8.18-3.37 13.86-3.76 8.36-9.33 19-15.1 31.45-3.96 9.23-12.14 28.29-15.59 38.18zm45.09-81c-6.2 1.37-7.85 1.68-11.18 2.18-11.14 1.46-19.82-.75-23-5.68-.82-1.19-.22-2 1.67-2 16.82-.79 46.72-9.21 57.41-10a34.49 34.49 0 0 1 6.84-.16c12 .73 9.3 9.68 4 20.48-4 8.1-9.32 18.19-15.05 29.88l-3.7 7.78c-4.43 9.71-8.85 20.41-12.8 31.49-.45 1.47-1.73 1.75-3.11.62-3.21-2.51-5.74-6.36-3.8-15.24a113.3 113.3 0 0 1 5-14.18c6.13-14.29 16.59-37 23.94-51-8.02.82-17.66 3.97-26.22 5.87z"/><path d="m159.31 80.86a1.89 1.89 0 0 1 3.55-.38c.64 1.22 1.77 4.79-.49 9.44-5.06 10.34-16.78 16.27-30.07 18.39-11.83 1.82-19.93 1.39-27.41-2.36-4.48-2.23-7-5.23-8.31-8.65a415.55 415.55 0 0 0 -18.46 44.45c-.48 1.33-1.73 1.75-3.11.62-3.42-2.63-5.18-6.42-3.43-15.28 2.75-14.09 24.78-61.47 34.07-74.39 1.48-2 3.22-1.9 4.51-.33a12.5 12.5 0 0 1 2.44 6.13c7.1-6.15 17.29-11.2 26.63-5.8 10.46 6.15 9 19 4.48 31.09-3.66 9.77-9.15 17.17-15.57 21.12 18.12-2.77 27.2-13.91 31.17-24.05zm-51.31 21.77c6.73 3 16.72-8.45 22.67-22.72 4.92-11.9 4.54-23.65-.48-24.83-4.83-1.19-14.94 7-21.44 18.61-1.53 2.72-3.05 5.45-4.67 8.6-2.81 9.25-1.97 17.71 3.92 20.34z"/><path d="m214.7 67.61c-1.42 12.24-10.21 27.52-23.28 32.46a26.37 26.37 0 0 1 -24.81-3.63c-9.92-7.2-9.68-19.59-3.64-31.6 5.1-10.21 14.78-19.48 25.86-21.22 5.72-.89 9.16 0 13.69 3.39 5.2 3.86 11 4.24 12 14.37 0 1.13.25 2.1.3 3.23 1.12-.11 2.18-.51 3.67-.67 1.31-.14 1.46.56.86 1.33a8 8 0 0 1 -4.65 2.34zm-16.6-1.8c-4.39-1.81-9.9-6.2-11.17-11.32a47.64 47.64 0 0 0 -11.61 14.59c-5.6 11.39-5.7 24.48-.2 27 5.9 2.65 16.26-3.42 22.7-17.18a58.83 58.83 0 0 0 4.18-11.79 17.36 17.36 0 0 1 -3.9-1.3zm3.73-13c-1.88-4.35-5.43-3.12-5.51 1-.14 3.85 2.76 7.67 6.19 9.44.58-4.5.41-8.04-.68-10.48z"/><path d="m273.42 43.07c5.16 5.42-.75 13.58-2.89 21.48-.4 1.75-1.06 2.25-3.69 1.53-4.83-1.19-8.33-5.09-7-11.62 1-5.22 5.33-11.79 2.4-13.05-3.59-1.61-15.7 8.77-21.43 22.31-6.94 16.8-.58 27.92 10.46 26.9 15.67-1.52 26.73-14.06 32.56-23.62a2 2 0 0 1 3.38-.22c.8 1.06.79 4.61-1.59 8.7-5.36 9-18.66 17.32-32.82 19-23.64 2.79-35.31-13.61-27-32.83 8.24-18.78 25.51-28.28 35.72-25.09 5.53 1.64 8.99 3.55 11.9 6.51z"/><path d="m331.69 28.1c6.38-.54 11.3 6.48 10.16 12.85 7.58-7.48 18.7-15.34 24.89-15.85 6.75-.57 10 7.48 7.72 14.82-2 6.62-9.24 16.76-12.44 24.2-3.55 8.48.42 14.6 7.11 13.75 7.62-1 14.08-11 19.3-21.51a2.09 2.09 0 0 1 3.3-.64c1.14.88 1.55 5.53.17 8.94-3.55 8.48-14 16.7-24.85 17.84-16.23 1.72-24.24-7.25-19.74-19.38s17.78-29.6 14.83-30c-1.58-.26-7.6 1.94-17.82 12.26-13.05 13.18-19.37 27.5-24.45 41.4-.77 1.78-2.17 2.36-4.14 1.14-3.62-1.75-7.38-6.89-4.08-17.48 3.71-12.19 19.81-33.51 15.87-34.08-2.38-.46-10.73 4.26-20.62 15.25-9.13 10.07-15.35 23.94-20 37.8-.49 1.33-1.49 2-3.4 1.07-4.67-2.2-6.57-6.69-4.9-14.12 2.07-9.18 11.55-30.22 20.54-44.53 1-1.67 2.5-1.69 3.92-.42 4 3.56 4.58 9 3 14.9 6.62-7.96 18.88-17.64 25.63-18.21z"/><path d="m401.07 79.19c-15.87 1.67-21.42-6.55-18.57-19.19 2.63-11.93 11.14-22.22 16.74-36.31a3.14 3.14 0 0 1 3-1.89c2 .36 4.77 3.62 5.89 6.2 1.57 3.82-.2 9-3 14.68a25.93 25.93 0 0 1 3.61-.95c4.42-.75 6.84-.16 10.11 1.77 3.76 2.45 7.64 2.75 8.59 9 1.88 12.33-7.33 24.67-26.37 26.69zm29.22-25.13c1.09-.25 1.24.44.77.92-1.59 2.44-12.18 2.85-17.75.88-3.13-1.23-7.13-3.94-8-7.11a19.13 19.13 0 0 0 -4.4 1.74c-3.5 6.91-6.84 13.66-5.75 18.8.94 4.45 3.69 5.73 7.24 5.35 6.15-.65 14.79-8.53 14.59-20.31-.09-3.11.16-5.56-.51-6.91-1.33-2.7-4-1.85-4.26.6s1.78 4.78 4.31 5.98c2.16 1.15 8.68 1.31 13.76.06zm7.27.09c2.52-10.64 11.37-28.35 16.74-36.31 1.33-1.85 2.55-2.41 4.31-1.31 3.27 1.93 6 7.75 3 15.17-2.63 6.54-8.47 16.82-10.92 24.19-2.77 8.53-1.25 13.92 4.66 13 8.34-1.17 16.67-11.43 20.24-21.62.67-1.35 2-1.34 3-.31 2 2.07 2 5.05.52 8.76-3.78 9.21-14.3 16.29-24.75 17.4-14.19 1.51-19.61-7.02-16.8-18.97z"/><path d="m595.42 34.62a1.72 1.72 0 0 1 1.48-1.15c1.12-.12 2.5 1 2.91 3 2 9.32-12.11 23-25.54 24.45-26.51 2.8-18.67-18.78-13.65-31.11h-1.52c-9.49 19.2-16.41 31.58-32.83 33.32-21.27 2.23-17.27-14.25-12.27-28.43h-1.52c-11 22.2-19.64 34.34-31.37 35.73-8 1-11.34-2.22-12.25-6.53-1.21-5.7 1.21-13.2 7.55-13.87.94-.1 1.53 0 1.67.67a1.69 1.69 0 0 1 -.32 1.17c-1.88 3.76-2.49 8.09-1.87 11 .5 2.36 1.76 3.79 3.81 3.57 6-.63 12.46-10.55 27-34.69l14.77-24.75a5.13 5.13 0 0 1 3.53-2c3.36-.36 5.58 3 6.29 6.3a15.17 15.17 0 0 1 -.27 6.85c-4.57 19-8.92 31.79-8 36.1a5.08 5.08 0 0 0 5.48 4.26c6.16-.66 10.72-8 24.8-31.62l14.8-24.74a5.09 5.09 0 0 1 3.6-2.15c3.36-.36 5.58 3 6.29 6.3.44 2.08.38 4.5-8.78 37.88-1 4.09-3.32 13.15 6.38 12.12 7.66-.78 14.8-11.2 19.83-21.68z"/></g></svg>