<svg id="Capa_1" xmlns="http://www.w3.org/2000/svg" viewBox="0 0 155.1 155.1"><style>.st0{fill-rule:evenodd;clip-rule:evenodd;fill:#e0dedb}</style><path class="st0" d="M108 35.2c4.3 6.8 6.8 14.7 6.8 23.1 0 10.5-3.9 20.1-10.3 27.8-.7.9-3-.7-2.3-1.5 6-7.1 9.6-16.1 9.6-25.9 0-8-2.4-15.6-6.6-22-.7-1 2-2.6 2.8-1.5zm-78-4.1c-6.9 7.4-11 17.1-11 27.6 0 12.6 5.3 24.3 14.7 32.1 1 2.7.4 11.7.5 20.3 7.7-4.1 14.2-8.3 19.4-11.2 3.8.8 7.9 1.2 11.9 1.2 12.4 0 23.7-4.4 32-11.6.9-.8 3.1.8 2.3 1.6-8.9 7.9-21 12.7-34.2 12.7-3.7 0-7.3-.3-10.8-1-4.9 2.9-15.8 8.9-23 12.6-.2-4.5-.3-15.1-.8-23.5-9.6-8.3-14.8-20.6-14.8-33.7 0-11.2 4.4-21.4 11.7-29.3.5-.8 2.8 1.4 2.1 2.2zm4.6-4.4c.9-.7 1.7-1.4 2.6-2 1-.7-.9-3.3-1.9-2.6-1 .7-1.9 1.4-2.9 2.2-.7.7 1.5 3.1 2.2 2.4zm8.3-5.3C49.5 18 57.2 16 65.4 16c3.5 0 6.8.3 10.1 1 .8.2 1.2-3 .3-3.2-3.3-.7-6.8-1-10.4-1-8.7 0-16.9 2.1-24 5.7-1 .5.6 3.3 1.5 2.9zm37.6-3.1c4.6 1.5 8.9 3.6 12.7 6.2 1.1.7 2.7-2.1 1.3-3-4-2.7-8.5-4.9-13.3-6.4-1-.2-1.6 3-.7 3.2zm17.8 10.3c.6.5 1.1 1.1 1.6 1.6 1.1 1.1 3.5-1 2.4-2.2-.5-.5-1-1-1.6-1.5-.7-.7-3 1.5-2.4 2.1z"/></svg>