<svg id="Capa_1" xmlns="http://www.w3.org/2000/svg" viewBox="0 0 155.1 155.1"><style>.st0{fill-rule:evenodd;clip-rule:evenodd;fill:#e0dedb}</style><path class="st0" d="M69 34.7C47.8 44 24.8 54 22.1 55.2c-5.1 2.1-2.9 3.5-.9 4.7 1.9 1.2 21.3 11.3 27.7 15.5 5.5-5.7 50.7-50.6 57-56.9-1.9.8-12.2 5.3-25 10.9-.9.4-2-2.6-1.1-3 12.7-5.6 22.5-9.8 22.5-9.8 5.9-3.2 8.8-1.1 8.8-1.1 2.5 1.2.4 7 .4 7L73 109.3c-1.3 4.1-6 1-6 1L47.8 78.6c-.9-1.3-30.7-18-30.7-18-6.4-5 3-8 3-8s25.2-11.1 47.7-20.9c.7-.3 1.9 2.7 1.2 3zm6.4-2.8c-.4.2-.8.3-1.2.5-1 .4-2.1-2.6-1.1-3 .4-.2.8-.4 1.2-.5 1-.5 2 2.6 1.1 3zM51.2 77.6c4.2 6.4 15.2 26.3 16.4 28.3 1.2 1.9 2.7 4.2 4.7-.9s34.3-79.7 36.5-85c-6.3 6.2-52 52.1-57.6 57.6z"/></svg>