<svg enable-background="new 0 0 600 600" viewBox="0 0 600 600" xmlns="http://www.w3.org/2000/svg"><g fill="#e0dedb"><path d="m437.6 195.9c-3.2-8.2-7-14.1-13.2-20.3s-12.1-10-20.3-13.2c-6.3-2.4-15.6-5.3-32.8-6.1-18.6-.8-24.2-1-71.3-1-5.9 0-11.1 0-15.8 0-32.9 0-39.2.2-55.5 1-17.2.8-26.6 3.7-32.8 6.1-8.2 3.2-14.1 7-20.3 13.2s-10 12.1-13.2 20.3c-2.4 6.3-5.3 15.6-6.1 32.8-.8 18.6-1 24.2-1 71.3s.2 52.7 1 71.3c.8 17.2 3.7 26.6 6.1 32.8 3.2 8.2 7 14.1 13.2 20.3s12.1 10 20.3 13.2c6.3 2.4 15.6 5.3 32.8 6.1 18.6.8 24.2 1 71.3 1s52.7-.2 71.3-1c17.2-.8 26.6-3.7 32.8-6.1 8.3-3.2 14.1-7 20.3-13.2s10-12.1 13.2-20.3c2.4-6.3 5.3-15.6 6.1-32.8.8-18.6 1-24.2 1-71.3s-.2-52.7-1-71.3c-.8-17.2-3.7-26.6-6.1-32.8zm-137.6 194.7c-50 0-90.6-40.5-90.6-90.6 0-50 40.5-90.6 90.6-90.6s90.6 40.5 90.6 90.6c0 50-40.5 90.6-90.6 90.6zm94.2-163.6c-11.7 0-21.2-9.5-21.2-21.2s9.5-21.2 21.2-21.2 21.2 9.5 21.2 21.2-9.5 21.2-21.2 21.2z"/><circle cx="300" cy="300" r="58.8"/><path d="m300 2.5c-164.3 0-297.5 133.2-297.5 297.5s133.2 297.5 297.5 297.5 297.5-133.2 297.5-297.5-133.2-297.5-297.5-297.5zm175.5 370.4c-.9 18.8-3.9 31.6-8.2 42.8-4.6 11.6-10.6 21.5-20.4 31.3s-19.6 15.9-31.2 20.4c-11.3 4.4-24.1 7.3-42.9 8.2-18.9.9-24.9 1.1-72.8 1.1-48 0-54-.2-72.8-1.1-18.7-.9-31.6-3.8-42.8-8.2-11.6-4.5-21.5-10.6-31.3-20.4-9.9-9.8-15.9-19.7-20.4-31.3-4.4-11.2-7.3-24-8.2-42.8-.9-18.9-1.1-24.9-1.1-72.8 0-48 .3-54 1.1-72.8.8-18.7 3.8-31.6 8.2-42.8 4.6-11.6 10.6-21.5 20.4-31.3 9.8-9.9 19.7-15.9 31.3-20.4 11.2-4.4 24-7.3 42.8-8.2s24.9-1.1 72.8-1.1 53.9.2 72.7 1.1 31.6 3.8 42.9 8.2c11.7 4.6 21.5 10.6 31.3 20.4s15.9 19.7 20.4 31.3c4.3 11.2 7.3 24 8.2 42.8.9 18.9 1.1 24.9 1.1 72.8 0 48-.3 54-1.1 72.8z"/></g></svg>