<svg enable-background="new 0 0 1000 1000" viewBox="0 0 1000 1000" xmlns="http://www.w3.org/2000/svg"><path d="m500 10c-270.6 0-490 219.4-490 490s219.4 490 490 490 490-219.4 490-490-219.4-490-490-490zm-119.9 693.1h-99.2v-319.3h99.2zm-50.3-358.5c-31.3 0-51.6-22.2-51.6-49.7 0-28 20.9-49.6 52.9-49.6s51.6 21.5 52.2 49.6c0 27.5-20.2 49.7-53.5 49.7zm412.6 358.5h-99.2v-177c0-41.2-14.4-69.2-50.3-69.2-27.4 0-43.7 18.9-50.9 37.2-2.7 6.5-3.3 15.7-3.3 24.8v184.1h-99.3v-217.4c0-39.9-1.3-73.2-2.6-101.9h86.2l4.5 44.4h2c13.1-20.8 45.1-51.6 98.6-51.6 65.3 0 114.2 43.7 114.2 137.8v188.8z" fill="#e0dedb"/></svg>