<?xml version="1.0" encoding="utf-8"?>
<!-- Generator: Adobe Illustrator 23.0.2, SVG Export Plug-In . SVG Version: 6.00 Build 0)  -->
<svg version="1.1" id="Слой_1" xmlns="http://www.w3.org/2000/svg" xmlns:xlink="http://www.w3.org/1999/xlink" x="0px" y="0px"
	 viewBox="0 0 36 36" style="enable-background:new 0 0 36 36;" xml:space="preserve">
<style type="text/css">
	.st0{fill:#C90007;}
	.st1{fill:#FFFFFF;}
</style>
<title>m2-logo</title>
<g>
	<g id="Слой_1-2">
		<path class="st0" d="M18,0L18,0c9.9,0,18,8.1,18,18v0c0,9.9-8.1,18-18,18h0C8.1,36,0,27.9,0,18v0C0,8.1,8.1,0,18,0z"/>
		<path class="st1" d="M28.5,25.8H14.7l9.3-9.3c0.5-0.5,0.6-1.4,0-1.9c-0.5-0.5-1.4-0.6-1.9,0l0,0l-6.6,6.6l-3.7-3.7v8.3H8.3V9.3
			l7.1,7.1l4.2-4.2c1.8-1.9,4.8-1.9,6.7,0s1.9,4.8,0,6.7l0,0l-3.5,3.5h5.6v3.4H28.5z"/>
		
			<animateTransform  accumulate="none" additive="replace" attributeName="transform" begin="0s" calcMode="linear" dur="0.85s" fill="remove" from="0 18 18" repeatCount="indefinite" restart="always" to="360 18 18" type="rotate">
			</animateTransform>
	</g>
</g>
</svg>
