<svg id="Capa_1" xmlns="http://www.w3.org/2000/svg" viewBox="0 0 155.1 155.1"><style>.st0{fill-rule:evenodd;clip-rule:evenodd;fill:#e0dedb}</style><path class="st0" d="M74.6 29.2c0-.5-.4-.9-.9-.9H58.1c-.5 0-.9.4-.9.9s.4.9.9.9h15.6c.5 0 .9-.4.9-.9zm19.5 72.7c0 5-4 9-9 9H46.9c-5 0-9-4-9-9V43.8h-3v58c0 6.6 5.4 12 12 12H85c6.6 0 12-5.4 12-12V74.9h-2.8c-.1 14.6-.1 27-.1 27zm0-29.7H97V70h-2.8v2.2zM85 17.1H46.9c-6.6 0-12 5.4-12 12v10.8h3V28.8c0-5 4-9 9-9h38.3c5 0 9 4 9 9V67H97V29c0-6.5-5.4-11.9-12-11.9zM59.5 98.9c0 3.5 2.9 6.4 6.4 6.4s6.4-2.9 6.4-6.4c0-3.5-2.9-6.4-6.4-6.4s-6.4 2.9-6.4 6.4zm10.9 0c0 2.5-2 4.5-4.5 4.5s-4.5-2-4.5-4.5 2-4.5 4.5-4.5c2.5.1 4.5 2.1 4.5 4.5z"/></svg>