<svg xmlns="http://www.w3.org/2000/svg" width="36.26" height="35.048" viewBox="0 0 36.26 35.048">
  <g id="menu" transform="translate(0 -0.001)">
    <path id="Path_187" data-name="Path 187" d="M.281,34.969a.579.579,0,0,0,.293.08.565.565,0,0,0,.256-.061l11.541-5.968,11.158,5.965a.548.548,0,0,0,.508,0l11.907-6.1a.564.564,0,0,0,.315-.487V.547A.57.57,0,0,0,35.436.06L23.8,6.03,12.634.157a.549.549,0,0,0-.5,0L.317,6.159A.565.565,0,0,0,0,6.647V34.5a.564.564,0,0,0,.281.467Zm22.929-1.408L12.894,28.069V1.543L23.209,6.949Zm11.956-5.493L24.3,33.633V7.008L35.166,1.442ZM1.094,6.982,11.8,1.538V28.073L1.094,33.6Zm0,0" transform="translate(0 0)" fill="#afaea8"/>
    <path id="Path_188" data-name="Path 188" d="M332.495,108.034a.546.546,0,0,0,.249-.06l6.637-3.405a.547.547,0,1,0-.5-.973L332.245,107a.547.547,0,0,0,.25,1.034Zm0,0" transform="translate(-306.007 -95.441)" fill="#afaea8"/>
    <path id="Path_189" data-name="Path 189" d="M332.491,157.378a.546.546,0,0,0,.249-.061l6.637-3.405a.547.547,0,1,0-.5-.973l-6.637,3.406a.547.547,0,0,0,.25,1.034Zm0,0" transform="translate(-306.003 -140.928)" fill="#afaea8"/>
    <path id="Path_190" data-name="Path 190" d="M338.861,202.287l-6.637,3.405a.547.547,0,1,0,.5.973l6.637-3.406a.547.547,0,1,0-.5-.973Zm0,0" transform="translate(-305.986 -186.42)" fill="#afaea8"/>
    <path id="Path_191" data-name="Path 191" d="M39.424,223.028l-6.638,3.406a.547.547,0,1,0,.5.973L39.923,224a.547.547,0,1,0-.5-.973Zm0,0" transform="translate(-29.949 -205.542)" fill="#afaea8"/>
    <path id="Path_192" data-name="Path 192" d="M39.424,272.376l-6.638,3.405a.547.547,0,1,0,.5.973l6.637-3.406a.547.547,0,1,0-.5-.973Zm0,0" transform="translate(-29.949 -251.034)" fill="#afaea8"/>
    <path id="Path_193" data-name="Path 193" d="M192.712,160.413l-6.139-3.231a.547.547,0,0,0-.509.968l6.139,3.231a.547.547,0,1,0,.509-.968Zm0,0" transform="translate(-171.258 -144.842)" fill="#afaea8"/>
    <path id="Path_194" data-name="Path 194" d="M186.012,98.9l6.139,3.231a.547.547,0,1,0,.509-.968l-6.139-3.231a.547.547,0,0,0-.509.968Zm0,0" transform="translate(-171.207 -90.224)" fill="#afaea8"/>
    <path id="Path_195" data-name="Path 195" d="M40.407,84.886a.53.53,0,0,0-.526-.02l-6.614,3.405a.526.526,0,0,0-.274.487v4.628a.53.53,0,0,0,.243.467.514.514,0,0,0,.276.08.531.531,0,0,0,.245-.06l6.617-3.406a.529.529,0,0,0,.277-.487V85.352A.532.532,0,0,0,40.407,84.886Zm-.85,4.76-5.47,2.844v-3.4l5.47-2.844Zm0,0" transform="translate(-30.414 -78.178)" fill="#afaea8"/>
    <path id="Path_196" data-name="Path 196" d="M192.906,229.474l-6.133-3.231a.521.521,0,0,0-.524.016.535.535,0,0,0-.251.468v5.4a.537.537,0,0,0,.281.484l6.133,3.231a.538.538,0,0,0,.252.063.505.505,0,0,0,.27-.079.536.536,0,0,0,.252-.468v-5.4A.537.537,0,0,0,192.906,229.474Zm-.813,4.977-5-2.655v-4.163l5,2.655Zm0,0" transform="translate(-171.462 -208.505)" fill="#afaea8"/>
  </g>
</svg>
