<svg xmlns="http://www.w3.org/2000/svg" width="28.336" height="28.336" viewBox="0 0 28.336 28.336">
  <g id="map" transform="translate(-1 -1)">
    <path id="Path_197" data-name="Path 197" d="M10.828,8.656A1.828,1.828,0,1,0,9,6.828,1.83,1.83,0,0,0,10.828,8.656Zm0-2.742a.914.914,0,1,1-.914.914A.915.915,0,0,1,10.828,5.914Z" transform="translate(-4.344 -2.172)" fill="#afaea8"/>
    <path id="Path_198" data-name="Path 198" d="M29.336,17.618V14.6L25.961,8.31a2.794,2.794,0,0,0-2.616-1.826H14.054a1.37,1.37,0,0,0-1.33,1.038l-.088.352-.989-.989a1.365,1.365,0,0,0-.97-.4H9.754a4.608,4.608,0,0,0,.386-1.828,3.656,3.656,0,0,0-7.313,0,4.608,4.608,0,0,0,.386,1.828H2.371A1.373,1.373,0,0,0,1,7.855v6.477a1.361,1.361,0,0,0,.4.969l.78.78-.78.78a1.361,1.361,0,0,0-.4.969v7.646a1.369,1.369,0,0,0,.937,1.3L9.4,29.265a1.36,1.36,0,0,0,.435.071H27.965a1.373,1.373,0,0,0,1.371-1.371V21.488a1.361,1.361,0,0,0-.4-.969L27.521,19.1l.713-.143A1.374,1.374,0,0,0,29.336,17.618Zm-3.377-7.379,1.836,3.42-3.451-1.726.438-.262a2.8,2.8,0,0,0,1.177-1.431ZM6.484,1.914A2.745,2.745,0,0,1,9.227,4.656a3.69,3.69,0,0,1-.344,1.549l-2.4,5.14-2.4-5.14a3.69,3.69,0,0,1-.344-1.549A2.745,2.745,0,0,1,6.484,1.914Zm0,21.457a1.328,1.328,0,0,1-1.007,1.29l-.191.048-1.436-1.8.2-.3a1.329,1.329,0,0,1,2.435.755ZM5.7,25.547a2.233,2.233,0,0,0,1.423-1.1l1.7,3.665L3.09,26.2Zm19.968-7,2.621,2.621a.461.461,0,0,1,.134.323v6.477a.457.457,0,0,1-.457.457H9.975L7.244,22.535l0,0a2.239,2.239,0,0,0-3.951-.428l-.569.854,1.592,1.99-2.386.6a.451.451,0,0,1-.011-.07V17.832a.46.46,0,0,1,.134-.323l1.426-1.427L2.048,14.656a.461.461,0,0,1-.134-.323V7.855A.457.457,0,0,1,2.371,7.4H3.634l2.851,6.108L9.335,7.4h1.341A.455.455,0,0,1,11,7.532l2.131,2.131.479-1.919a.457.457,0,0,1,.444-.346h9.292a1.877,1.877,0,0,1,.965,3.487L22.445,12l5.977,2.989v2.624a.457.457,0,0,1-.367.448Z" transform="translate(0)" fill="#afaea8"/>
    <path id="Path_199" data-name="Path 199" d="M30.214,34.711h-.5A1.373,1.373,0,0,1,28.34,33.34v-9.6a2.742,2.742,0,1,0-5.484,0v7.77a1.371,1.371,0,1,1-2.742,0v-6.4a2.288,2.288,0,0,0-2.285-2.285H16v.914h1.828A1.373,1.373,0,0,1,19.2,25.113v6.4a2.285,2.285,0,0,0,4.57,0v-7.77a1.828,1.828,0,0,1,3.656,0v9.6a2.288,2.288,0,0,0,2.285,2.285h.5a2.285,2.285,0,1,0,0-.914Zm3.61.457A1.371,1.371,0,1,1,32.453,33.8,1.373,1.373,0,0,1,33.824,35.168Z" transform="translate(-8.145 -10.859)" fill="#afaea8"/>
  </g>
</svg>
