<svg xmlns="http://www.w3.org/2000/svg" width="38.61" height="36.648" viewBox="0 0 38.61 36.648">
  <g id="_3d-2" data-name="3d-2" transform="translate(0 -0.5)">
    <path id="Path_90" data-name="Path 90" d="M342.754,346.5a.754.754,0,1,0,.754.754A.754.754,0,0,0,342.754,346.5Zm0,0" transform="translate(-316.21 -319.904)" fill="#afaea8"/>
    <path id="Path_91" data-name="Path 91" d="M247.508,161.254a.754.754,0,1,0-.754.754A.754.754,0,0,0,247.508,161.254Zm0,0" transform="translate(-227.449 -147.934)" fill="#afaea8"/>
    <path id="Path_92" data-name="Path 92" d="M150.754,348a.754.754,0,1,0-.754-.754A.754.754,0,0,0,150.754,348Zm0,0" transform="translate(-138.689 -319.904)" fill="#afaea8"/>
    <path id="Path_93" data-name="Path 93" d="M38.162,31.684l-4.077-1.811V13.32a.758.758,0,0,0-.463-.7L20.059,6.79V1.254a.754.754,0,0,0-1.508,0V6.79L4.988,12.624a.759.759,0,0,0-.463.7V29.872L.448,31.684a.754.754,0,0,0,.612,1.378l4.223-1.876,13.724,5.9a.766.766,0,0,0,.6,0l13.723-5.9,4.223,1.876a.754.754,0,0,0,.612-1.378ZM18.551,8.432V10.3a.754.754,0,0,0,1.508,0V8.432L31.422,13.32,19.3,18.532,7.187,13.32ZM10,28.265a.755.755,0,0,0-1-.383L6.032,29.2V14.465l12.518,5.384v15.4l-11.39-4.9,2.454-1.091A.755.755,0,0,0,10,28.265ZM20.059,35.25v-15.4l12.518-5.384V29.2l-2.97-1.32a.754.754,0,1,0-.612,1.378l2.454,1.091Zm0,0" fill="#afaea8"/>
  </g>
</svg>
