<svg id="podium" xmlns="http://www.w3.org/2000/svg" width="53.362" height="53.362" viewBox="0 0 53.362 53.362">
  <g id="Group_178" data-name="Group 178" transform="translate(21.47 46.796)">
    <g id="Group_177" data-name="Group 177">
      <path id="Path_297" data-name="Path 297" d="M207.042,449a1.042,1.042,0,1,0,1.042,1.042A1.043,1.043,0,0,0,207.042,449Z" transform="translate(-206 -449)" fill="#fff"/>
    </g>
  </g>
  <g id="Group_180" data-name="Group 180" transform="translate(23.554 28.036)">
    <g id="Group_179" data-name="Group 179">
      <path id="Path_298" data-name="Path 298" d="M231.211,277.338h-1.042v-7.3A1.042,1.042,0,0,0,229.127,269h-2.084a1.042,1.042,0,0,0,0,2.084h1.042v6.253h-1.042a1.042,1.042,0,1,0,0,2.084h4.169a1.042,1.042,0,0,0,0-2.084Z" transform="translate(-226 -269)" fill="#fff"/>
    </g>
  </g>
  <g id="Group_182" data-name="Group 182" transform="translate(6.566 36.374)">
    <g id="Group_181" data-name="Group 181">
      <path id="Path_299" data-name="Path 299" d="M68.211,355.253a1.042,1.042,0,0,0,1.042-1.042v-4.169A1.042,1.042,0,0,0,68.211,349H64.042a1.042,1.042,0,0,0,0,2.084h3.127v2.084H64.042A1.042,1.042,0,0,0,63,354.211v4.169a1.042,1.042,0,0,0,1.042,1.042h4.169a1.042,1.042,0,1,0,0-2.084H65.084v-2.084Z" transform="translate(-63 -349)" fill="#fff"/>
    </g>
  </g>
  <g id="Group_184" data-name="Group 184" transform="translate(40.543 38.458)">
    <g id="Group_183" data-name="Group 183">
      <path id="Path_300" data-name="Path 300" d="M394.211,369h-4.169a1.042,1.042,0,0,0,0,2.085h3.127v2.084h-3.127a1.042,1.042,0,0,0,0,2.084h3.127v2.084h-3.127a1.042,1.042,0,1,0,0,2.084h4.169a1.042,1.042,0,0,0,1.042-1.042v-8.338A1.042,1.042,0,0,0,394.211,369Z" transform="translate(-389 -369)" fill="#fff"/>
    </g>
  </g>
  <g id="Group_186" data-name="Group 186" transform="translate(0 23.554)">
    <g id="Group_185" data-name="Group 185">
      <path id="Path_301" data-name="Path 301" d="M52.32,236.735H36.061v-9.693A1.042,1.042,0,0,0,35.019,226H18.343a1.042,1.042,0,0,0-1.042,1.042v5.524H1.042A1.042,1.042,0,0,0,0,233.608v21.157a1.042,1.042,0,0,0,1.042,1.042H52.32a1.042,1.042,0,0,0,1.042-1.042V237.777A1.042,1.042,0,0,0,52.32,236.735ZM17.3,253.723H2.084V234.651H17.3Zm16.676,0H19.386V228.084H33.977Zm17.3,0H36.061v-14.9H51.278Z" transform="translate(0 -226)" fill="#fff"/>
    </g>
  </g>
  <g id="Group_188" data-name="Group 188" transform="translate(16.201)">
    <g id="Group_187" data-name="Group 187">
      <path id="Path_302" data-name="Path 302" d="M176.275,7.943a1.042,1.042,0,0,0-.841-.709L169.5,6.371,166.835.6a1.042,1.042,0,0,0-1.892,0l-2.667,5.767-5.934.862a1.042,1.042,0,0,0-.578,1.778l4.31,4.2-1.021,6.244a1.042,1.042,0,0,0,1.514,1.091l5.322-2.8,5.321,2.8a1.042,1.042,0,0,0,1.514-1.091L171.7,13.212l4.31-4.2A1.042,1.042,0,0,0,176.275,7.943ZM169.858,12.1a1.042,1.042,0,0,0-.3.915l.771,4.715-3.955-2.08a1.042,1.042,0,0,0-.97,0l-3.956,2.08.771-4.715a1.042,1.042,0,0,0-.3-.915l-3.186-3.105,4.4-.64a1.042,1.042,0,0,0,.8-.594l1.958-4.233,1.957,4.233a1.042,1.042,0,0,0,.8.594l4.4.64Z" transform="translate(-155.449 0)" fill="#fff"/>
    </g>
  </g>
  <g id="Group_190" data-name="Group 190" transform="translate(25.639 46.796)">
    <g id="Group_189" data-name="Group 189">
      <path id="Path_303" data-name="Path 303" d="M251.211,449h-4.169a1.042,1.042,0,0,0,0,2.084h4.169a1.042,1.042,0,1,0,0-2.084Z" transform="translate(-246 -449)" fill="#fff"/>
    </g>
  </g>
</svg>
