<svg xmlns="http://www.w3.org/2000/svg" width="22.5" height="22.5" viewBox="0 0 22.5 22.5">
  <g id="testimonial" transform="translate(0 -0.005)">
    <g id="Group_5" data-name="Group 5" transform="translate(2.373 0.005)">
      <g id="Group_4" data-name="Group 4">
        <path id="Path_3" data-name="Path 3" d="M57.07,3.153h-.8c.12-.89.613-.935.839-.956a.439.439,0,0,0,.4-.438V.444a.439.439,0,0,0-.464-.439C55.656.084,54,.785,54,3.683V5.97a.693.693,0,0,0,.692.692H57.07a.693.693,0,0,0,.692-.692V3.845A.693.693,0,0,0,57.07,3.153Zm-.187,2.63h-2v-2.1c0-2.022.9-2.587,1.751-2.746V1.4c-.588.179-1.266.708-1.266,2.194a.439.439,0,0,0,.439.439h1.079Z" transform="translate(-54 -0.005)" fill="#fff"/>
      </g>
    </g>
    <g id="Group_7" data-name="Group 7" transform="translate(6.866 0.005)">
      <g id="Group_6" data-name="Group 6">
        <path id="Path_4" data-name="Path 4" d="M159.3,3.153h-.8c.12-.89.613-.935.839-.956a.439.439,0,0,0,.4-.438V.444a.439.439,0,0,0-.464-.439c-1.389.078-3.045.78-3.045,3.677V5.97a.693.693,0,0,0,.692.692H159.3A.693.693,0,0,0,160,5.969V3.845A.693.693,0,0,0,159.3,3.153Zm-.187,2.63h-2v-2.1c0-2.022.9-2.587,1.751-2.746V1.4c-.588.179-1.266.708-1.266,2.194a.439.439,0,0,0,.439.439h1.079Z" transform="translate(-156.234 -0.005)" fill="#fff"/>
      </g>
    </g>
    <g id="Group_9" data-name="Group 9" transform="translate(11.777 3.426)">
      <g id="Group_8" data-name="Group 8">
        <path id="Path_5" data-name="Path 5" d="M268.75,77.994a.439.439,0,1,0,.129.311A.443.443,0,0,0,268.75,77.994Z" transform="translate(-268 -77.865)" fill="#fff"/>
      </g>
    </g>
    <g id="Group_11" data-name="Group 11" transform="translate(0 3.426)">
      <g id="Group_10" data-name="Group 10">
        <path id="Path_6" data-name="Path 6" d="M14.689,77.864h-.554a.439.439,0,0,0,0,.879h.554a6.932,6.932,0,0,1,1.43,13.715.439.439,0,0,0-.349.43v2.553l-2.707-2.707a.44.44,0,0,0-.311-.129H7.811a6.933,6.933,0,0,1-6.062-10.3.439.439,0,1,0-.768-.427,7.812,7.812,0,0,0,6.83,11.6h4.76L15.9,96.813a.439.439,0,0,0,.75-.311V93.237a7.811,7.811,0,0,0-1.96-15.373Z" transform="translate(0 -77.864)" fill="#fff"/>
      </g>
    </g>
    <g id="Group_13" data-name="Group 13" transform="translate(5.403 7.805)">
      <g id="Group_12" data-name="Group 12">
        <path id="Path_7" data-name="Path 7" d="M134.193,177.492H123.376a.439.439,0,1,0,0,.879h10.816a.439.439,0,1,0,0-.879Z" transform="translate(-122.937 -177.492)" fill="#fff"/>
      </g>
    </g>
    <g id="Group_15" data-name="Group 15" transform="translate(5.403 10.148)">
      <g id="Group_14" data-name="Group 14">
        <path id="Path_8" data-name="Path 8" d="M134.193,230.825H123.376a.439.439,0,0,0,0,.879h10.816a.439.439,0,1,0,0-.879Z" transform="translate(-122.937 -230.825)" fill="#fff"/>
      </g>
    </g>
    <g id="Group_17" data-name="Group 17" transform="translate(5.403 12.492)">
      <g id="Group_16" data-name="Group 16">
        <path id="Path_9" data-name="Path 9" d="M134.193,284.158H123.376a.439.439,0,1,0,0,.879h10.816a.439.439,0,1,0,0-.879Z" transform="translate(-122.937 -284.158)" fill="#fff"/>
      </g>
    </g>
    <g id="Group_19" data-name="Group 19" transform="translate(10.453 14.836)">
      <g id="Group_18" data-name="Group 18">
        <path id="Path_10" data-name="Path 10" d="M244.076,337.492H238.31a.439.439,0,1,0,0,.879h5.765a.439.439,0,1,0,0-.879Z" transform="translate(-237.871 -337.492)" fill="#fff"/>
      </g>
    </g>
    <g id="Group_21" data-name="Group 21" transform="translate(7.974 14.836)">
      <g id="Group_20" data-name="Group 20">
        <path id="Path_11" data-name="Path 11" d="M181.893,337.491h-.007a.439.439,0,0,0,0,.879h.007a.439.439,0,0,0,0-.879Z" transform="translate(-181.446 -337.491)" fill="#fff"/>
      </g>
    </g>
  </g>
</svg>
