<svg xmlns="http://www.w3.org/2000/svg" width="40.837" height="30.298" viewBox="0 0 40.837 30.298">
  <g id="hat" transform="translate(0 -64)">
    <g id="Group_159" data-name="Group 159" transform="translate(0 64)">
      <path id="Path_230" data-name="Path 230" d="M38.2,85.735v-3.6A18.087,18.087,0,0,0,20.918,64.006,17.785,17.785,0,0,0,2.635,81.783v3.952H0v3.724l2.485,1.087a44.74,44.74,0,0,0,35.866,0l2.485-1.087V85.735Zm-5.649-14.9a31.28,31.28,0,0,0-.938,7.557v2.075H28.981v-3.33a24.17,24.17,0,0,1,1.465-8.3A16.988,16.988,0,0,1,32.553,70.833Zm-11.672-5.51a15.771,15.771,0,0,1,2.151.211L21.788,80.466h-2.74L17.8,65.523A16.533,16.533,0,0,1,20.881,65.324ZM8.936,69.981a16.665,16.665,0,0,1,1.421-1.231,24.162,24.162,0,0,1,1.5,8.386v3.33H9.221V78.391a31.193,31.193,0,0,0-.973-7.7C8.47,70.453,8.7,70.213,8.936,69.981ZM39.519,88.6l-1.7.742a43.431,43.431,0,0,1-34.811,0l-1.7-.742V87.053H32.933V85.735H3.952V81.783a16.32,16.32,0,0,1,3.241-9.812A29.928,29.928,0,0,1,7.9,78.391v3.393h5.269V77.136a25.485,25.485,0,0,0-1.709-9.178A16.219,16.219,0,0,1,16.5,65.782l1.333,16H23l1.331-15.978a16.183,16.183,0,0,1,5.01,2.234,25.482,25.482,0,0,0-1.678,9.1v4.647h5.269V78.391a29.915,29.915,0,0,1,.674-6.256,16.933,16.933,0,0,1,3.277,10v3.6H34.25v1.317h5.269Z" transform="translate(0 -64)" fill="#afaea8"/>
    </g>
  </g>
</svg>
