<svg xmlns="http://www.w3.org/2000/svg" width="32.939" height="29.508" viewBox="0 0 32.939 29.508">
  <g id="sitemap" transform="translate(0 -26.667)">
    <g id="Group_160" data-name="Group 160" transform="translate(0 26.667)">
      <path id="Path_231" data-name="Path 231" d="M30.743,47.94H29.508V43.4a3.967,3.967,0,0,0-4.019-3.691H17.156V35.588h1.921a2.2,2.2,0,0,0,2.2-2.2V28.863a2.2,2.2,0,0,0-2.2-2.2H13.862a2.2,2.2,0,0,0-2.2,2.2v4.529a2.2,2.2,0,0,0,2.2,2.2h1.921v4.117H7.45A3.967,3.967,0,0,0,3.431,43.4V47.94H2.2a2.2,2.2,0,0,0-2.2,2.2v3.843a2.2,2.2,0,0,0,2.2,2.2H6.039a2.2,2.2,0,0,0,2.2-2.2V50.136a2.2,2.2,0,0,0-2.2-2.2H4.8V43.4A2.606,2.606,0,0,1,7.45,41.078h8.333V47.94H14.548a2.2,2.2,0,0,0-2.2,2.2v3.843a2.2,2.2,0,0,0,2.2,2.2h3.843a2.2,2.2,0,0,0,2.2-2.2V50.136a2.2,2.2,0,0,0-2.2-2.2H17.156V41.078h8.333A2.606,2.606,0,0,1,28.135,43.4V47.94H26.9a2.2,2.2,0,0,0-2.2,2.2v3.843a2.2,2.2,0,0,0,2.2,2.2h3.843a2.2,2.2,0,0,0,2.2-2.2V50.136A2.2,2.2,0,0,0,30.743,47.94Zm-24.7,1.373a.823.823,0,0,1,.823.823v3.843a.823.823,0,0,1-.823.823H2.2a.823.823,0,0,1-.823-.823V50.136a.823.823,0,0,1,.823-.823H6.039Zm12.352,0a.823.823,0,0,1,.823.823v3.843a.823.823,0,0,1-.823.823H14.548a.823.823,0,0,1-.823-.823V50.136a.823.823,0,0,1,.823-.823h3.843Zm-4.529-15.1a.823.823,0,0,1-.823-.823V28.863a.823.823,0,0,1,.823-.823h5.215a.823.823,0,0,1,.823.823v4.529a.823.823,0,0,1-.823.823Zm17.7,19.763a.823.823,0,0,1-.823.823H26.9a.823.823,0,0,1-.823-.823V50.136a.823.823,0,0,1,.823-.823h3.843a.823.823,0,0,1,.823.823Z" transform="translate(0 -26.667)" fill="#afaea8"/>
    </g>
  </g>
</svg>
