<svg xmlns="http://www.w3.org/2000/svg" width="34.227" height="37.141" viewBox="0 0 34.227 37.141">
  <g id="warranty" transform="translate(-20.087)">
    <path id="Path_243" data-name="Path 243" d="M78.978,227.8a.547.547,0,0,0-.547.547v.988A13.027,13.027,0,0,0,83.5,239.693l5.169,4.012a1.057,1.057,0,0,0,1.3,0l4.043-3.138a.547.547,0,0,0-.671-.865l-4.021,3.12-5.146-3.994a11.94,11.94,0,0,1-4.65-9.495v-.988A.547.547,0,0,0,78.978,227.8Z" transform="translate(-54.112 -211.273)" fill="#afaea8"/>
    <path id="Path_244" data-name="Path 244" d="M218.966,460.369a.75.75,0,1,0,.75.75A.75.75,0,0,0,218.966,460.369Z" transform="translate(-183.756 -426.973)" fill="#afaea8"/>
    <path id="Path_245" data-name="Path 245" d="M218.966,40.683a.75.75,0,1,0,.75.75A.75.75,0,0,0,218.966,40.683Z" transform="translate(-183.756 -37.732)" fill="#afaea8"/>
    <path id="Path_246" data-name="Path 246" d="M384.224,102.355a.75.75,0,1,0,.75-.75A.75.75,0,0,0,384.224,102.355Z" transform="translate(-337.722 -94.234)" fill="#afaea8"/>
    <path id="Path_247" data-name="Path 247" d="M50.975,102.355a.75.75,0,1,0,.75-.75A.75.75,0,0,0,50.975,102.355Z" transform="translate(-28.647 -94.234)" fill="#afaea8"/>
    <path id="Path_248" data-name="Path 248" d="M53.229,33.554V20.281a1.882,1.882,0,0,0-.8-3.588H46.1V10.049A1.056,1.056,0,0,0,45.163,9a25.085,25.085,0,0,1-5.776-1.315,16.578,16.578,0,0,1-3.15-1.517,1.936,1.936,0,0,0-2.054,0,16.578,16.578,0,0,1-3.15,1.517A25.088,25.088,0,0,1,25.257,9a1.056,1.056,0,0,0-.937,1.051v4.436a.547.547,0,0,0,1.094,0v-4.4a26.163,26.163,0,0,0,5.994-1.371,17.673,17.673,0,0,0,3.359-1.619.826.826,0,0,1,.887,0,17.669,17.669,0,0,0,3.359,1.619,26.164,26.164,0,0,0,5.994,1.371v6.611H42.073a1.882,1.882,0,0,0-.791,3.591v11.91l-4.089,3.174a3.252,3.252,0,0,1-1.984.68,3.207,3.207,0,0,1-1.983-.68l-5.837-4.53A16.048,16.048,0,0,1,21.181,18.16V6.234a.256.256,0,0,1,.254-.255l1.774-.013c6.064-.044,9.016-2.1,10.236-3.317a11.125,11.125,0,0,0,1.027-1.182.922.922,0,0,1,.744-.372h0a.914.914,0,0,1,.738.372,10.722,10.722,0,0,0,1.02,1.182c.982.982,3.946,3.272,10.236,3.317l1.774.013a.256.256,0,0,1,.254.255v8.228a.547.547,0,1,0,1.094,0V6.234a1.353,1.353,0,0,0-1.34-1.35l-1.774-.013c-5.885-.043-8.583-2.11-9.47-3A9.638,9.638,0,0,1,36.834.814,2,2,0,0,0,35.22,0h-.005A2.007,2.007,0,0,0,33.6.81a10.016,10.016,0,0,1-.925,1.065c-1.1,1.1-3.8,2.956-9.47,3l-1.774.013a1.353,1.353,0,0,0-1.34,1.35V18.16A17.142,17.142,0,0,0,26.719,31.7l5.837,4.53a4.328,4.328,0,0,0,5.309,0l2.7-2.092a1.882,1.882,0,0,0,1.513,3H52.432a1.882,1.882,0,0,0,.8-3.588ZM42.377,27.216a13.128,13.128,0,0,0,1.272-1.511,5.144,5.144,0,0,0,1.359,1.176,5.889,5.889,0,0,0-2.631,3.826Zm0-4.161a6.176,6.176,0,0,0,.617,1.676q-.289.432-.617.839Zm.974,8.8A4.578,4.578,0,0,1,46.3,27.518a.657.657,0,0,0,0-1.274,4.578,4.578,0,0,1-2.951-4.334V20.459h7.8V21.91A4.578,4.578,0,0,1,48.2,26.244a.657.657,0,0,0,0,1.274,4.578,4.578,0,0,1,2.951,4.334v1.525h-7.8Zm8.784-1.108A5.893,5.893,0,0,0,49.5,26.881a5.893,5.893,0,0,0,2.638-3.862ZM42.073,17.787H52.432a.788.788,0,0,1,0,1.577H42.073a.788.788,0,1,1,0-1.577Zm10.358,18.26H42.073a.789.789,0,1,1,0-1.577H52.432a.789.789,0,0,1,0,1.577Z" transform="translate(0 0)" fill="#afaea8"/>
    <path id="Path_249" data-name="Path 249" d="M124.066,164.893h.008a1.632,1.632,0,0,0,1.289-.626l6.917-8.778a1.641,1.641,0,1,0-2.579-2.032l-5.609,7.118-2.551-3.331a1.642,1.642,0,0,0-2.607,2l3.836,5.008A1.633,1.633,0,0,0,124.066,164.893Zm-4.37-6.722a.547.547,0,0,1,.977-.261l2.979,3.89a.547.547,0,0,0,.431.214.557.557,0,0,0,.434-.209l6.045-7.671a.547.547,0,0,1,.859.677L124.5,163.59a.544.544,0,0,1-.43.208h0a.543.543,0,0,1-.431-.215l-3.836-5.008A.543.543,0,0,1,119.7,158.171Z" transform="translate(-91.363 -141.745)" fill="#afaea8"/>
  </g>
</svg>
