<svg id="transaction" xmlns="http://www.w3.org/2000/svg" width="31" height="31" viewBox="0 0 31 31">
  <path id="Path_232" data-name="Path 232" d="M28.933,4.133h-.819L24.132.151a.519.519,0,0,0-.151-.1c-.016-.007-.032-.011-.048-.017A.514.514,0,0,0,23.8,0c-.011,0-.021,0-.032,0H4.65A2.067,2.067,0,0,0,2.583,2.067V4.133H2.067A2.067,2.067,0,0,0,0,6.2V23.767a2.067,2.067,0,0,0,2.067,2.067H12.222l-1.24,4.133H9.817V31H17.05V29.967H12.061l1.24-4.133h2.716V24.8H2.067a1.033,1.033,0,0,1-1.033-1.033V22.733H18.6V21.7H1.033V6.2A1.033,1.033,0,0,1,2.067,5.167h.517v15.5H3.617V2.067A1.033,1.033,0,0,1,4.65,1.033h18.6V3.617a1.55,1.55,0,0,0,1.55,1.55h2.583v15.5h1.033V5.167h.517A1.033,1.033,0,0,1,29.967,6.2V21.7h-6.2v1.033h6.2v1.033a1.034,1.034,0,0,1-.344.771l.688.771A2.067,2.067,0,0,0,31,23.767V6.2A2.067,2.067,0,0,0,28.933,4.133Zm-4.133,0a.517.517,0,0,1-.517-.517V1.764l2.369,2.369Zm0,0" fill="#afaea8"/>
  <path id="Path_233" data-name="Path 233" d="M72.181,101.041l4.65,4.133a.517.517,0,0,0,.343.131.5.5,0,0,0,.211-.045.516.516,0,0,0,.305-.471v-2.067h9.3v-1.033H77.174a.517.517,0,0,0-.517.517v1.433L73.3,100.655l3.356-2.983v1.433a.517.517,0,0,0,.517.517H93.707V98.589H77.691V96.522a.517.517,0,0,0-.86-.386l-4.65,4.133a.517.517,0,0,0,0,.772Zm0,0" transform="translate(-67.357 -89.805)" fill="#afaea8"/>
  <path id="Path_234" data-name="Path 234" d="M187.7,183.829l3.11-2.764a.517.517,0,0,0,0-.772l-4.65-4.133a.517.517,0,0,0-.86.384v2.067H176v1.033h9.817a.517.517,0,0,0,.517-.517v-1.434l3.358,2.984-2.676,2.377Zm0,0" transform="translate(-164.633 -164.66)" fill="#afaea8"/>
  <path id="Path_235" data-name="Path 235" d="M72,265.033H89.05v-.517a.517.517,0,0,0-.517-.517H72Zm0,0" transform="translate(-67.35 -246.95)" fill="#afaea8"/>
  <path id="Path_236" data-name="Path 236" d="M259.627,300.137a1.555,1.555,0,0,0-1.26.348l-.031.027a1.547,1.547,0,0,0-2.067,0,1.611,1.611,0,0,0-1.55-.308v-2.616A1.593,1.593,0,0,0,253.428,296a1.55,1.55,0,0,0-1.809,1.529v6.321l-1.371-.822a1.419,1.419,0,0,0-1.374-.052l-.082.04a1.43,1.43,0,0,0-.191,2.441l3.235,2.31a.517.517,0,0,0,.3.1H260.4a.517.517,0,0,0,.517-.517v-5.628A1.594,1.594,0,0,0,259.627,300.137Zm.258,6.7H252.3l-3.1-2.214a.4.4,0,0,1,.052-.676l.081-.04a.391.391,0,0,1,.38.014l2.154,1.292a.517.517,0,0,0,.785-.442v-7.233a.517.517,0,0,1,.182-.394.512.512,0,0,1,.425-.115.559.559,0,0,1,.426.564v4.078a.517.517,0,0,0,1.033,0,.517.517,0,1,1,1.033,0,.517.517,0,0,0,1.033,0,.517.517,0,0,1,1.033,0,.517.517,0,0,0,1.033,0,.517.517,0,0,1,.607-.509.559.559,0,0,1,.426.564Zm0,0" transform="translate(-231.986 -276.866)" fill="#afaea8"/>
  <path id="Path_237" data-name="Path 237" d="M72,32h1.033v1.033H72Zm0,0" transform="translate(-67.35 -29.933)" fill="#afaea8"/>
  <path id="Path_238" data-name="Path 238" d="M104,32h1.033v1.033H104Zm0,0" transform="translate(-97.283 -29.933)" fill="#afaea8"/>
  <path id="Path_239" data-name="Path 239" d="M136,32h1.033v1.033H136Zm0,0" transform="translate(-127.217 -29.933)" fill="#afaea8"/>
  <path id="Path_240" data-name="Path 240" d="M72,64H89.567v1.033H72Zm0,0" transform="translate(-67.35 -59.867)" fill="#afaea8"/>
  <path id="Path_241" data-name="Path 241" d="M72,216h2.067v1.033H72Zm0,0" transform="translate(-67.35 -202.05)" fill="#afaea8"/>
  <path id="Path_242" data-name="Path 242" d="M368,184h2.583v1.033H368Zm0,0" transform="translate(-344.233 -172.117)" fill="#afaea8"/>
</svg>
