<svg xmlns="http://www.w3.org/2000/svg" width="16.271" height="16.271" viewBox="0 0 16.271 16.271">
  <g id="link-1" transform="translate(0 0)">
    <path id="Path_2" data-name="Path 2" d="M5.959,12.909l-.823.818a1.842,1.842,0,0,1-2.588,0,1.79,1.79,0,0,1,0-2.545l3.03-3.007c.628-.623,1.81-1.54,2.671-.686A1.008,1.008,0,1,0,9.67,6.058c-1.464-1.453-3.627-1.184-5.511.685L1.127,9.75a3.805,3.805,0,0,0,0,5.407,3.865,3.865,0,0,0,5.429,0l.824-.818a1.008,1.008,0,0,0-1.421-1.43Zm9.184-11.68a3.6,3.6,0,0,0-5.226-.2L8.891,2.047a1.008,1.008,0,1,0,1.421,1.431L11.338,2.46a1.633,1.633,0,0,1,2.385.2,1.79,1.79,0,0,1,0,2.546L10.49,8.414C9.012,9.88,8.318,9.192,8.022,8.9A1.008,1.008,0,1,0,6.6,10.329a3.18,3.18,0,0,0,2.266,1.008A4.439,4.439,0,0,0,11.91,9.844l3.233-3.207a3.805,3.805,0,0,0,0-5.408Z" transform="translate(0 0)" fill="#fff"/>
  </g>
</svg>
