<svg xmlns="http://www.w3.org/2000/svg" width="59.795" height="59.795" viewBox="0 0 59.795 59.795">
  <g id="Calendar" transform="translate(-2.205 -2)">
    <path id="Path_275" data-name="Path 275" d="M61,34H54V7a1,1,0,0,0-1-1H45V5a3,3,0,1,0-6,0V6H36V5a3,3,0,1,0-6,0V6H26V5a3,3,0,1,0-6,0V6H16V5a3,3,0,1,0-6,0V6H7A1,1,0,0,0,6,7V49a1,1,0,0,0,.94.99L3.67,53.26a5,5,0,1,0,7.071,7.071L19.22,51.85a.99.99,0,0,0,.29-.71.967.967,0,0,0-.29-.7L18.79,50H49a1,1,0,0,0,1-1V44h7a5,5,0,0,0,5-5V35A1,1,0,0,0,61,34ZM41,5a1,1,0,0,1,2,0V6H41Zm0,3h2V9a1,1,0,0,1-2,0ZM32,5a1,1,0,0,1,2,0V6H32Zm0,3h2V9a1,1,0,0,1-2,0ZM22,5a1,1,0,0,1,2,0V6H22Zm0,3h2V9a1,1,0,0,1-2,0ZM12,5a1,1,0,0,1,2,0V6H12Zm0,3h2V9a1,1,0,0,1-2,0Zm0,3.82A2.98,2.98,0,0,0,16,9V8h4V9a3,3,0,0,0,6,0V8h4V9a3,3,0,0,0,6,0V8h3V9a3,3,0,0,0,6,0V8h7v6H12ZM12,16H52V34H39.64A13.324,13.324,0,0,0,39,32a1,1,0,0,0,1-1V27a1,1,0,0,0-1-1H35a.989.989,0,0,0-.67.27A13,13,0,0,0,15,42a3,3,0,0,1-3-3ZM38,28v2h-.06a12.755,12.755,0,0,0-1.58-2ZM8,8h2V39a5,5,0,0,0,5,5h.76l-1.49,1.48-.71-.7a1.014,1.014,0,0,0-1.41,0L8.93,48H8ZM9.32,58.92a3.075,3.075,0,0,1-4.24,0,2.994,2.994,0,0,1,0-4.24l7.78-7.78,4.24,4.24Zm7.78-10.6L15.69,46.9l1.45-1.45a13.407,13.407,0,0,0,1.41,1.41ZM16,37A11,11,0,1,1,27,48,11,11,0,0,1,16,37ZM48,48H33.9a13.177,13.177,0,0,0,4.04-4H48Zm12-9a3.009,3.009,0,0,1-3,3H39a13.007,13.007,0,0,0,1-5c0-.34-.03-.67-.05-1H60Z" fill="#fff"/>
    <path id="Path_276" data-name="Path 276" d="M27,28a9,9,0,1,0,9,9,9,9,0,0,0-9-9Zm0,16a7,7,0,1,1,7-7,7,7,0,0,1-7,7Z" fill="#fff"/>
    <path id="Path_277" data-name="Path 277" d="M22,37h2a3,3,0,0,1,3-3V32a5.006,5.006,0,0,0-5,5Z" fill="#fff"/>
    <rect id="Rectangle_244" data-name="Rectangle 244" width="2" height="2" transform="matrix(0.707, -0.707, 0.707, 0.707, 11.444, 51.143)" fill="#fff"/>
    <rect id="Rectangle_245" data-name="Rectangle 245" width="5.999" height="2" transform="translate(5.787 56.799) rotate(-45)" fill="#fff"/>
    <path id="Path_278" data-name="Path 278" d="M45,24h4a1,1,0,0,0,1-1V19a1,1,0,0,0-1-1H45a1,1,0,0,0-1,1v4A1,1,0,0,0,45,24Zm1-4h2v2H46Z" fill="#fff"/>
    <path id="Path_279" data-name="Path 279" d="M45,32h4a1,1,0,0,0,1-1V27a1,1,0,0,0-1-1H45a1,1,0,0,0-1,1v4A1,1,0,0,0,45,32Zm1-4h2v2H46Z" fill="#fff"/>
    <path id="Path_280" data-name="Path 280" d="M35,24h4a1,1,0,0,0,1-1V19a1,1,0,0,0-1-1H35a1,1,0,0,0-1,1v4A1,1,0,0,0,35,24Zm1-4h2v2H36Z" fill="#fff"/>
    <path id="Path_281" data-name="Path 281" d="M30,23V19a1,1,0,0,0-1-1H25a1,1,0,0,0-1,1v4a1,1,0,0,0,1,1h4A1,1,0,0,0,30,23Zm-2-1H26V20h2Z" fill="#fff"/>
    <path id="Path_282" data-name="Path 282" d="M15,24h4a1,1,0,0,0,1-1V19a1,1,0,0,0-1-1H15a1,1,0,0,0-1,1v4A1,1,0,0,0,15,24Zm1-4h2v2H16Z" fill="#fff"/>
  </g>
</svg>
