<svg xmlns="http://www.w3.org/2000/svg" width="53.362" height="51.579" viewBox="0 0 53.362 51.579">
  <g id="menu" transform="translate(0 0)">
    <path id="Path_252" data-name="Path 252" d="M.413,51.463a.852.852,0,0,0,.432.117.832.832,0,0,0,.376-.09l16.984-8.783,16.421,8.778a.807.807,0,0,0,.748.006L52.9,42.513a.83.83,0,0,0,.464-.716V.8A.839.839,0,0,0,52.15.088L35.019,8.874,18.593.231a.808.808,0,0,0-.742,0L.467,9.064A.831.831,0,0,0,0,9.782V50.775a.83.83,0,0,0,.413.688ZM34.156,49.39,18.976,41.308V2.271l15.181,7.955Zm17.6-8.084L35.767,49.5V10.313L51.752,2.122ZM1.61,10.275,17.366,2.263v39.05L1.61,49.452Zm0,0" transform="translate(0 0)" fill="#fff"/>
    <path id="Path_253" data-name="Path 253" d="M332.753,110.157a.8.8,0,0,0,.367-.089l9.768-5.012a.805.805,0,1,0-.735-1.433l-9.768,5.012a.8.8,0,0,0,.368,1.521Zm0,0" transform="translate(-293.772 -91.625)" fill="#fff"/>
    <path id="Path_254" data-name="Path 254" d="M332.75,159.5a.8.8,0,0,0,.367-.089l9.768-5.012a.805.805,0,1,0-.735-1.433l-9.768,5.012a.805.805,0,0,0,.368,1.522Zm0,0" transform="translate(-293.768 -135.294)" fill="#fff"/>
    <path id="Path_255" data-name="Path 255" d="M342.133,202.316l-9.768,5.012a.805.805,0,1,0,.735,1.433l9.768-5.012a.8.8,0,1,0-.735-1.432Zm0,0" transform="translate(-293.751 -178.967)" fill="#fff"/>
    <path id="Path_256" data-name="Path 256" d="M42.7,223.056l-9.768,5.012a.805.805,0,1,0,.735,1.433l9.768-5.012a.805.805,0,1,0-.735-1.433Zm0,0" transform="translate(-28.751 -197.324)" fill="#fff"/>
    <path id="Path_257" data-name="Path 257" d="M42.7,272.405l-9.768,5.012a.805.805,0,1,0,.735,1.433l9.768-5.012a.8.8,0,1,0-.735-1.432Zm0,0" transform="translate(-28.751 -240.997)" fill="#fff"/>
    <path id="Path_258" data-name="Path 258" d="M195.984,161.965l-9.035-4.755a.805.805,0,0,0-.75,1.425l9.035,4.754a.8.8,0,1,0,.75-1.425Zm0,0" transform="translate(-164.41 -139.051)" fill="#fff"/>
    <path id="Path_259" data-name="Path 259" d="M186.15,99.391l9.035,4.754a.8.8,0,1,0,.75-1.425L186.9,97.966a.805.805,0,0,0-.75,1.425Zm0,0" transform="translate(-164.361 -86.617)" fill="#fff"/>
    <path id="Path_260" data-name="Path 260" d="M43.9,84.923a.78.78,0,0,0-.774-.029L33.4,89.906a.775.775,0,0,0-.4.716v6.81a.78.78,0,0,0,.357.687.756.756,0,0,0,.406.118.781.781,0,0,0,.36-.089l9.739-5.012a.778.778,0,0,0,.408-.716V85.61A.783.783,0,0,0,43.9,84.923Zm-1.251,7.005L34.6,96.114v-5l8.05-4.186Zm0,0" transform="translate(-29.198 -75.052)" fill="#fff"/>
    <path id="Path_261" data-name="Path 261" d="M196.164,231.028l-9.026-4.755a.767.767,0,0,0-.77.023.787.787,0,0,0-.37.689v7.946a.79.79,0,0,0,.414.712l9.026,4.755a.791.791,0,0,0,.371.093.743.743,0,0,0,.4-.116.788.788,0,0,0,.371-.689V231.74A.79.79,0,0,0,196.164,231.028Zm-1.2,7.324-7.36-3.907v-6.126l7.36,3.907Zm0,0" transform="translate(-164.607 -200.168)" fill="#fff"/>
  </g>
</svg>
