<svg id="skype" xmlns="http://www.w3.org/2000/svg" width="20.055" height="20.055" viewBox="0 0 20.055 20.055">
  <path id="Path_3" data-name="Path 3" d="M19.7,10.132A9.5,9.5,0,0,0,10.134.7,9.788,9.788,0,0,0,8.5.839,5.582,5.582,0,0,0,5.548,0,5.508,5.508,0,0,0,0,5.47,5.39,5.39,0,0,0,.762,8.236a9.356,9.356,0,0,0-.194,1.9,9.5,9.5,0,0,0,9.565,9.432,9.84,9.84,0,0,0,1.752-.158,5.591,5.591,0,0,0,2.623.649,5.508,5.508,0,0,0,5.546-5.469,5.387,5.387,0,0,0-.577-2.429A9.313,9.313,0,0,0,19.7,10.132Z" fill="#03a9f4"/>
  <path id="Path_4" data-name="Path 4" d="M125.328,100.422a4.335,4.335,0,0,1-1.944,1.453,7.888,7.888,0,0,1-2.988.52,7.377,7.377,0,0,1-3.426-.709,4.446,4.446,0,0,1-1.574-1.379,2.965,2.965,0,0,1-.612-1.7,1.175,1.175,0,0,1,.4-.889,1.411,1.411,0,0,1,1-.366,1.279,1.279,0,0,1,.842.288,2.179,2.179,0,0,1,.56.808,4.664,4.664,0,0,0,.548.959,2.128,2.128,0,0,0,.8.614,3.361,3.361,0,0,0,1.389.244,3.412,3.412,0,0,0,1.927-.5,1.377,1.377,0,0,0,.708-1.177,1.156,1.156,0,0,0-.369-.894,2.637,2.637,0,0,0-1.02-.557c-.435-.133-1.025-.278-1.755-.429a13.923,13.923,0,0,1-2.507-.74,4.143,4.143,0,0,1-1.643-1.185,2.924,2.924,0,0,1-.619-1.891,3.035,3.035,0,0,1,.649-1.908,4.026,4.026,0,0,1,1.858-1.272,8.22,8.22,0,0,1,2.806-.435,7.668,7.668,0,0,1,2.232.291,4.942,4.942,0,0,1,1.579.776,3.386,3.386,0,0,1,.93,1.032,2.252,2.252,0,0,1,.3,1.075,1.272,1.272,0,0,1-.392.91,1.327,1.327,0,0,1-.983.4,1.225,1.225,0,0,1-.824-.253,3.069,3.069,0,0,1-.572-.75,3.142,3.142,0,0,0-.859-1.048,2.72,2.72,0,0,0-1.6-.362,3.025,3.025,0,0,0-1.657.4,1.076,1.076,0,0,0-.593.9.818.818,0,0,0,.192.548,1.693,1.693,0,0,0,.57.427,4.242,4.242,0,0,0,.77.295c.266.073.711.182,1.324.321.775.163,1.485.347,2.115.547a6.777,6.777,0,0,1,1.638.736,3.245,3.245,0,0,1,1.078,1.122A3.33,3.33,0,0,1,126,98.319,3.551,3.551,0,0,1,125.328,100.422Z" transform="translate(-110.288 -85.783)" fill="#fafafa"/>
</svg>
