<svg id="responsive-design" xmlns="http://www.w3.org/2000/svg" width="113.952" height="88.976" viewBox="0 0 113.952 88.976">
  <path id="Path_68" data-name="Path 68" d="M110.606,23.192H92.767A3.464,3.464,0,0,0,89.2,26.537v3.791H69.575a3.464,3.464,0,0,0-3.568,3.345V71.359H3.568a.4.4,0,0,1-.223-.223V64H62.439V60.655H3.345V3.345c0-.062.161,0,.223,0H99.9c.062,0,0-.062,0,0V19.4h3.345V3.345A3.273,3.273,0,0,0,99.9,0H3.568A3.464,3.464,0,0,0,0,3.345V71.136A3.654,3.654,0,0,0,3.568,74.7H41.031V85.631H33.9v3.345H69.575V85.631H62.216V74.7h3.79v3.568a3.654,3.654,0,0,0,3.568,3.568H99.9a3.464,3.464,0,0,0,3.345-3.568V65.784h7.358a3.464,3.464,0,0,0,3.345-3.568V26.537A3.273,3.273,0,0,0,110.606,23.192ZM58.871,85.631H44.377V74.7H58.871Zm33.9-59.094h17.84c.062,0,0-.062,0,0v3.791H92.544V26.537C92.544,26.475,92.706,26.537,92.767,26.537Zm-.223,7.136h18.062V55.3H92.544ZM99.9,78.495H69.575a.4.4,0,0,1-.223-.223V74.7H99.9v3.568C99.9,78.334,99.964,78.495,99.9,78.495Zm0-7.136H69.352V33.673c0-.062.162,0,.223,0H89.2V62.216a3.654,3.654,0,0,0,3.568,3.568H99.9Zm10.7-8.92H92.767a.4.4,0,0,1-.223-.223V58.649h18.062v3.568C110.606,62.278,110.668,62.439,110.606,62.439Zm0,0" fill="#ea371b"/>
  <path id="Path_69" data-name="Path 69" d="M192.375,240.469h3.568v3.345h-3.568Zm0,0" transform="translate(-149.56 -186.95)" fill="#ea371b"/>
  <path id="Path_70" data-name="Path 70" d="M224.438,240.469h3.568v3.345h-3.568Zm0,0" transform="translate(-174.486 -186.95)" fill="#ea371b"/>
  <path id="Path_71" data-name="Path 71" d="M256.5,240.469h3.568v3.345H256.5Zm0,0" transform="translate(-199.413 -186.95)" fill="#ea371b"/>
  <path id="Path_72" data-name="Path 72" d="M35.408,40.76V35.408h5.574V32.062h-8.92v8.7Zm0,0" transform="translate(-24.927 -24.927)" fill="#ea371b"/>
  <path id="Path_73" data-name="Path 73" d="M320.625,167.226h3.346v-3.568h3.79v-3.346h-7.136Zm0,0" transform="translate(-249.266 -124.633)" fill="#ea371b"/>
  <path id="Path_74" data-name="Path 74" d="M424.828,160.312v6.913h3.345v-3.568h3.791v-3.346Zm0,0" transform="translate(-330.277 -124.633)" fill="#ea371b"/>
</svg>
