<svg xmlns="http://www.w3.org/2000/svg" width="95.256" height="100.601" viewBox="0 0 95.256 100.601">
  <g id="Group_133" data-name="Group 133" transform="translate(-286.234 -1330)">
    <g id="Group_102" data-name="Group 102" transform="translate(286.234 1330)">
      <g id="Group_97" data-name="Group 97" transform="translate(0 28.815)">
        <g id="Group_96" data-name="Group 96">
          <path id="Path_66" data-name="Path 66" d="M106.892,214.51h-4.31V151.936a5.288,5.288,0,0,0-5.282-5.282H87.668a5.288,5.288,0,0,0-5.282,5.282V214.51H71.444V180.287A5.288,5.288,0,0,0,66.162,175H56.529a5.288,5.288,0,0,0-5.282,5.282V214.51H40.3V196.786a5.288,5.288,0,0,0-5.282-5.282H25.39a5.288,5.288,0,0,0-5.282,5.282V214.51H15.566a1.965,1.965,0,0,0,0,3.93h91.327a1.965,1.965,0,0,0,0-3.93Zm-70.518,0H24.037V196.786a1.354,1.354,0,0,1,1.352-1.352h9.633a1.354,1.354,0,0,1,1.352,1.352Zm31.139,0H55.177V180.287a1.354,1.354,0,0,1,1.352-1.352h9.633a1.354,1.354,0,0,1,1.352,1.352Zm31.139,0H86.316V151.936a1.354,1.354,0,0,1,1.352-1.352H97.3a1.354,1.354,0,0,1,1.352,1.352V214.51Z" transform="translate(-13.601 -146.654)" fill="#ea371b"/>
        </g>
      </g>
      <g id="Group_99" data-name="Group 99" transform="translate(16.848 0)">
        <g id="Group_98" data-name="Group 98">
          <path id="Path_67" data-name="Path 67" d="M171.476,2.066A1.958,1.958,0,0,0,169.414,0c-.032,0-.063,0-.1,0H157.432a1.965,1.965,0,1,0,0,3.93h7.34L145.348,23.354l-7.325-7.325a1.965,1.965,0,0,0-2.779,0L99.922,51.351A1.965,1.965,0,0,0,102.7,54.13L136.633,20.2l7.325,7.325a1.965,1.965,0,0,0,2.779,0L167.551,6.709v6.643a1.965,1.965,0,0,0,3.93,0V2.161C171.48,2.129,171.477,2.1,171.476,2.066Z" transform="translate(-99.346)" fill="#ea371b"/>
        </g>
      </g>
    </g>
    <g id="Group_101" data-name="Group 101" transform="translate(286.29 1401.19)">
      <g id="Group_100" data-name="Group 100">
        <circle id="Ellipse_16" data-name="Ellipse 16" cx="1.965" cy="1.965" r="1.965" fill="#ea371b"/>
      </g>
    </g>
  </g>
</svg>
