<svg xmlns="http://www.w3.org/2000/svg" width="100.76" height="100.758" viewBox="0 0 100.76 100.758">
  <g id="testimonial" transform="translate(0 -0.005)">
    <g id="Group_5" data-name="Group 5" transform="translate(10.627 0.005)">
      <g id="Group_4" data-name="Group 4">
        <path id="Path_3" data-name="Path 3" d="M67.747,14.1H64.167c.539-3.988,2.744-4.188,3.758-4.28a1.968,1.968,0,0,0,1.79-1.96V1.973A1.968,1.968,0,0,0,67.636.008C61.415.358,54,3.5,54,16.475V26.716a3.1,3.1,0,0,0,3.1,3.1H67.748a3.1,3.1,0,0,0,3.1-3.1V17.2A3.1,3.1,0,0,0,67.747,14.1ZM66.912,25.88H57.936V16.475c0-9.055,4.027-11.583,7.843-12.3V6.247c-2.635.8-5.668,3.171-5.668,9.823a1.968,1.968,0,0,0,1.968,1.968h4.834Z" transform="translate(-54 -0.005)" fill="#ea371b"/>
      </g>
    </g>
    <g id="Group_7" data-name="Group 7" transform="translate(30.746 0.005)">
      <g id="Group_6" data-name="Group 6">
        <path id="Path_4" data-name="Path 4" d="M169.982,14.1H166.4c.539-3.988,2.743-4.188,3.758-4.28a1.968,1.968,0,0,0,1.79-1.96V1.973A1.968,1.968,0,0,0,169.87.008c-6.221.35-13.636,3.491-13.636,16.467V26.716a3.1,3.1,0,0,0,3.1,3.1h10.647a3.1,3.1,0,0,0,3.1-3.1V17.2A3.1,3.1,0,0,0,169.982,14.1Zm-.836,11.779H160.17V16.475c0-9.055,4.027-11.583,7.843-12.3V6.247c-2.635.8-5.668,3.171-5.668,9.823a1.968,1.968,0,0,0,1.968,1.968h4.834Z" transform="translate(-156.234 -0.005)" fill="#ea371b"/>
      </g>
    </g>
    <g id="Group_9" data-name="Group 9" transform="translate(52.741 15.327)">
      <g id="Group_8" data-name="Group 8">
        <path id="Path_5" data-name="Path 5" d="M271.359,78.442a1.967,1.967,0,1,0,.577,1.391A1.983,1.983,0,0,0,271.359,78.442Z" transform="translate(-268 -77.865)" fill="#ea371b"/>
      </g>
    </g>
    <g id="Group_11" data-name="Group 11" transform="translate(0 15.327)">
      <g id="Group_10" data-name="Group 10">
        <path id="Path_6" data-name="Path 6" d="M65.783,77.864H63.3a1.968,1.968,0,0,0,0,3.936h2.48a31.044,31.044,0,0,1,6.4,61.42,1.968,1.968,0,0,0-1.564,1.926V156.58L58.5,144.459a1.968,1.968,0,0,0-1.392-.576H34.977A31.05,31.05,0,0,1,7.831,97.777a1.968,1.968,0,0,0-3.439-1.913,34.985,34.985,0,0,0,30.586,51.955H56.3l14.9,14.9a1.968,1.968,0,0,0,3.36-1.392V146.705a34.981,34.981,0,0,0-8.777-68.841Z" transform="translate(0 -77.864)" fill="#ea371b"/>
      </g>
    </g>
    <g id="Group_13" data-name="Group 13" transform="translate(24.194 34.934)">
      <g id="Group_12" data-name="Group 12">
        <path id="Path_7" data-name="Path 7" d="M173.342,177.492H124.9a1.968,1.968,0,1,0,0,3.936h48.437a1.968,1.968,0,1,0,0-3.936Z" transform="translate(-122.937 -177.492)" fill="#ea371b"/>
      </g>
    </g>
    <g id="Group_15" data-name="Group 15" transform="translate(24.194 45.429)">
      <g id="Group_14" data-name="Group 14">
        <path id="Path_8" data-name="Path 8" d="M173.342,230.825H124.9a1.968,1.968,0,1,0,0,3.936h48.437a1.968,1.968,0,1,0,0-3.936Z" transform="translate(-122.937 -230.825)" fill="#ea371b"/>
      </g>
    </g>
    <g id="Group_17" data-name="Group 17" transform="translate(24.194 55.925)">
      <g id="Group_16" data-name="Group 16">
        <path id="Path_9" data-name="Path 9" d="M173.342,284.158H124.9a1.968,1.968,0,1,0,0,3.936h48.437a1.968,1.968,0,1,0,0-3.936Z" transform="translate(-122.937 -284.158)" fill="#ea371b"/>
      </g>
    </g>
    <g id="Group_19" data-name="Group 19" transform="translate(46.812 66.421)">
      <g id="Group_18" data-name="Group 18">
        <path id="Path_10" data-name="Path 10" d="M265.657,337.492H239.839a1.968,1.968,0,1,0,0,3.936h25.818a1.968,1.968,0,1,0,0-3.936Z" transform="translate(-237.871 -337.492)" fill="#ea371b"/>
      </g>
    </g>
    <g id="Group_21" data-name="Group 21" transform="translate(35.708 66.421)">
      <g id="Group_20" data-name="Group 20">
        <path id="Path_11" data-name="Path 11" d="M183.446,337.491h-.032a1.968,1.968,0,0,0,0,3.936h.032a1.968,1.968,0,0,0,0-3.936Z" transform="translate(-181.446 -337.491)" fill="#ea371b"/>
      </g>
    </g>
  </g>
</svg>
