<svg xmlns="http://www.w3.org/2000/svg" width="99.267" height="100.922" viewBox="0 0 99.267 100.922">
  <g id="bullhorn" transform="translate(-2 -1)">
    <path id="Path_75" data-name="Path 75" d="M59.906,68.4H56.6V52.184a1.654,1.654,0,0,0-3.309,0V68.4H10.272V35.309H24.037a1.654,1.654,0,0,0,0-3.309H8.618a1.654,1.654,0,0,0-1.654,1.654V68.4H3.654A1.654,1.654,0,0,0,2,70.052v3.309a8.272,8.272,0,0,0,8.272,8.272H53.288a8.272,8.272,0,0,0,8.272-8.272V70.052A1.654,1.654,0,0,0,59.906,68.4Zm-1.654,4.963a4.963,4.963,0,0,1-4.963,4.963H49.979V76.67a1.654,1.654,0,0,0-3.309,0v1.654H16.89V76.67a1.654,1.654,0,0,0-3.309,0v1.654H10.272a4.963,4.963,0,0,1-4.963-4.963V71.707H58.251Z" transform="translate(0 20.288)" fill="#ea371b"/>
    <path id="Path_76" data-name="Path 76" d="M57.272,9.309h3.309a1.654,1.654,0,0,0,0-3.309H57.272a4.963,4.963,0,0,0-4.963,4.963v1.654H50.654a1.654,1.654,0,0,0,0,3.309h1.654V20.89a1.654,1.654,0,1,0,3.309,0V15.927h1.654a1.654,1.654,0,0,0,0-3.309H55.618V10.963A1.654,1.654,0,0,1,57.272,9.309Z" transform="translate(30.759 3.272)" fill="#ea371b"/>
    <path id="Path_77" data-name="Path 77" d="M68.817,2H48.963A4.963,4.963,0,0,0,44,6.963v3.309a1.654,1.654,0,0,0,3.309,0V6.963a1.654,1.654,0,0,1,1.654-1.654H68.817a1.654,1.654,0,0,1,1.654,1.654V26.817a1.654,1.654,0,0,1-1.654,1.654H48.963a1.654,1.654,0,0,1-1.654-1.654V16.89a1.654,1.654,0,0,0-3.309,0v9.927a4.963,4.963,0,0,0,4.963,4.963H68.817a4.963,4.963,0,0,0,4.963-4.963V6.963A4.963,4.963,0,0,0,68.817,2Z" transform="translate(27.487 0.654)" fill="#ea371b"/>
    <path id="Path_78" data-name="Path 78" d="M49,44.618A6.618,6.618,0,1,0,55.618,38,6.618,6.618,0,0,0,49,44.618Zm9.927,0a3.309,3.309,0,1,1-3.309-3.309A3.309,3.309,0,0,1,58.927,44.618Z" transform="translate(30.759 24.215)" fill="#ea371b"/>
    <path id="Path_79" data-name="Path 79" d="M68.817,33H48.963A4.963,4.963,0,0,0,44,37.963V57.817a4.963,4.963,0,0,0,4.963,4.963H68.817a4.963,4.963,0,0,0,4.963-4.963V54.508a1.654,1.654,0,1,0-3.309,0v3.309a1.654,1.654,0,0,1-1.654,1.654H48.963a1.654,1.654,0,0,1-1.654-1.654V37.963a1.654,1.654,0,0,1,1.654-1.654H68.817a1.654,1.654,0,0,1,1.654,1.654V47.89a1.654,1.654,0,1,0,3.309,0V37.963A4.963,4.963,0,0,0,68.817,33Z" transform="translate(27.487 20.942)" fill="#ea371b"/>
    <path id="Path_80" data-name="Path 80" d="M24.778,18.985a1.646,1.646,0,0,0,1.621.066l9.927-4.963a1.654,1.654,0,0,0,0-2.945L26.4,6.18A1.654,1.654,0,0,0,24,7.652v9.927A1.654,1.654,0,0,0,24.778,18.985Zm2.531-8.653,4.566,2.283L27.309,14.9Z" transform="translate(14.398 3.274)" fill="#ea371b"/>
    <path id="Path_81" data-name="Path 81" d="M32.89,30.78A14.89,14.89,0,1,0,18,15.89,14.89,14.89,0,0,0,32.89,30.78Zm0-26.471A11.581,11.581,0,1,1,21.309,15.89,11.581,11.581,0,0,1,32.89,4.309Z" transform="translate(10.471 0)" fill="#ea371b"/>
    <path id="Path_82" data-name="Path 82" d="M37.654,26.927a1.654,1.654,0,0,0,1.324-.662l4.963-6.618a1.654,1.654,0,0,0-2.647-1.985L36.331,24.28a1.654,1.654,0,0,0,1.324,2.647Z" transform="translate(22.251 10.471)" fill="#ea371b"/>
    <path id="Path_83" data-name="Path 83" d="M39.331,29.611a1.654,1.654,0,0,0,2.316.331l6.618-4.963a1.654,1.654,0,0,0-1.985-2.647l-6.618,4.963A1.654,1.654,0,0,0,39.331,29.611Z" transform="translate(24.215 13.743)" fill="#ea371b"/>
    <path id="Path_84" data-name="Path 84" d="M53.65,29.339a1.654,1.654,0,0,0-1.985-1.324L43.392,29.67a1.663,1.663,0,0,0,.331,3.309h.331l8.272-1.654a1.654,1.654,0,0,0,1.324-1.985Z" transform="translate(26.109 17.655)" fill="#ea371b"/>
    <path id="Path_85" data-name="Path 85" d="M3.654,40.78H23.508a1.654,1.654,0,0,0,1.654-1.654V12.654A1.654,1.654,0,0,0,23.508,11H3.654A1.654,1.654,0,0,0,2,12.654V39.126A1.654,1.654,0,0,0,3.654,40.78ZM5.309,14.309H21.853V37.471H5.309Z" transform="translate(0 6.545)" fill="#ea371b"/>
    <path id="Path_86" data-name="Path 86" d="M12.963,15H9.654a1.654,1.654,0,0,0,0,3.309h3.309a1.654,1.654,0,0,0,0-3.309Z" transform="translate(3.927 9.162)" fill="#ea371b"/>
    <path id="Path_87" data-name="Path 87" d="M14.272,19H7.654a1.654,1.654,0,0,0,0,3.309h6.618a1.654,1.654,0,0,0,0-3.309Z" transform="translate(2.618 11.78)" fill="#ea371b"/>
    <path id="Path_88" data-name="Path 88" d="M14.272,23H7.654a1.654,1.654,0,0,0,0,3.309h6.618a1.654,1.654,0,0,0,0-3.309Z" transform="translate(2.618 14.398)" fill="#ea371b"/>
    <path id="Path_89" data-name="Path 89" d="M53.847,32.429a1.66,1.66,0,0,0-2.879,1.654l7.3,12.623L31.793,56.633h-.248l-4.3,2.482-2.862,1.654a3.3,3.3,0,0,1-4.517-1.208l-3.309-5.724A3.309,3.309,0,0,1,17.8,49.469l5.724-3.309,4.136,7.164a1.66,1.66,0,1,0,2.879-1.654l-4.268-7.379L47.03,27.167l.678,1.175a1.66,1.66,0,0,0,2.879-1.654l-1.654-2.862a1.677,1.677,0,0,0-2.5-.447L23.272,42.471l-7.048,4.07a6.618,6.618,0,0,0-3.044,7.495l-1.654.943a4.96,4.96,0,0,0,2.482,9.265,5.063,5.063,0,0,0,2.482-.662l1.654-.943a6.419,6.419,0,0,0,2.9,1.721,6.269,6.269,0,0,0,1.737.232,6.518,6.518,0,0,0,3.309-.893l1.439-.827,3.309,5.741a4.959,4.959,0,1,0,8.587-4.963L36.409,58.4l24.817-9.315a1.659,1.659,0,0,0,.86-2.366ZM14.768,60.7a1.653,1.653,0,1,1-1.654-2.862l1.439-.827,1.654,2.862Zm21.773,4.632a1.653,1.653,0,0,1-2.862,1.654L30.37,61.249l2.746-1.572h.132Z" transform="translate(4.603 14.4)" fill="#ea371b"/>
  </g>
</svg>
