<svg xmlns="http://www.w3.org/2000/svg" width="94.794" height="95.299" viewBox="0 0 94.794 95.299">
  <g id="Consult-Talk" transform="translate(-2 -1.68)">
    <rect id="Rectangle_174" data-name="Rectangle 174" width="3.16" height="3.16" transform="translate(24.119 38.523)" fill="#ea371b"/>
    <rect id="Rectangle_175" data-name="Rectangle 175" width="3.16" height="3.16" transform="translate(39.918 38.523)" fill="#ea371b"/>
    <path id="Path_101" data-name="Path 101" d="M95.438,55.918l-6.173-.882a22.118,22.118,0,0,0-1.038-2.528l3.735-4.98a1.58,1.58,0,0,0-.147-2.065l-6.7-6.7a1.563,1.563,0,0,0-.957-.447V23.1a12.639,12.639,0,0,0,4.74-9.86A12.508,12.508,0,0,0,81.67,1.832,1.58,1.58,0,0,0,79.415,3.26v8.847l-3.16,1.054L73.1,12.107V3.26a1.58,1.58,0,0,0-2.255-1.422,12.508,12.508,0,0,0-7.225,11.407,12.639,12.639,0,0,0,4.74,9.86V33.783h-4.74a1.58,1.58,0,0,0-1.564,1.356L61.03,42.294l3.128.447.828-5.8h6.74l.828,5.8a1.58,1.58,0,0,0,1.122,1.292,18.862,18.862,0,0,1,3.792,1.559,1.58,1.58,0,0,0,1.708-.122l4.678-3.507,4.765,4.765L85.1,51.407a1.58,1.58,0,0,0-.122,1.708,18.863,18.863,0,0,1,1.559,3.792,1.58,1.58,0,0,0,1.292,1.122l5.8.828V65.6l-5.8.828a1.58,1.58,0,0,0-1.292,1.122,18.862,18.862,0,0,1-1.559,3.792,1.58,1.58,0,0,0,.122,1.708l3.507,4.678-4.765,4.765-4.675-3.52a1.58,1.58,0,0,0-1.708-.122,18.863,18.863,0,0,1-3.792,1.559A1.58,1.58,0,0,0,72.549,81.7l-.823,5.8H65.2V80.819a17.537,17.537,0,0,0-.711-4.931,14.393,14.393,0,1,0-10.1-11.157c-.038-.016-.074-.035-.112-.049L41.5,59.572V57.144a17.519,17.519,0,0,0,5.5-4.4h3.983A4.74,4.74,0,0,0,55.717,48V44.552a4.74,4.74,0,0,0,3.16-4.449v-4.74a4.74,4.74,0,0,0-3.16-4.449V29.044a22.119,22.119,0,1,0-44.237,0v1.871a4.74,4.74,0,0,0-3.16,4.449V40.1a4.74,4.74,0,0,0,4.74,4.74h3.16c.1,0,.2-.016.3-.022A17.415,17.415,0,0,0,25.7,57.144v2.428L12.925,64.681A17.3,17.3,0,0,0,2,80.819V95.4a1.58,1.58,0,0,0,1.58,1.58H63.616A1.58,1.58,0,0,0,65.2,95.4V90.66h7.9A1.58,1.58,0,0,0,74.66,89.3l.882-6.172a22.118,22.118,0,0,0,2.528-1.038l4.98,3.735a1.58,1.58,0,0,0,2.065-.147l6.7-6.7a1.58,1.58,0,0,0,.147-2.065l-3.735-4.98a22.118,22.118,0,0,0,1.038-2.528l6.173-.882a1.58,1.58,0,0,0,1.354-1.563V57.482a1.58,1.58,0,0,0-1.356-1.564ZM78.06,42.35c-.074-.036-.158-.06-.232-.095V22.724H74.675V35.253l-.016-.114A1.58,1.58,0,0,0,73.1,33.783h-1.58V22.313a1.58,1.58,0,0,0-.678-1.3,9.479,9.479,0,0,1-.9-14.846v7.075a1.58,1.58,0,0,0,1.081,1.5l4.739,1.58a1.58,1.58,0,0,0,1,0l4.74-1.58a1.58,1.58,0,0,0,1.081-1.5V6.17a9.479,9.479,0,0,1-.9,14.851,1.58,1.58,0,0,0-.678,1.292V40.155ZM57.3,62.222a11.138,11.138,0,1,1,5.266,9.386,17.246,17.246,0,0,0-4.125-4.545A10.8,10.8,0,0,1,57.3,62.222Zm-6.32-12.639H49.059a17.221,17.221,0,0,0,1.619-4.762c.1,0,.2.022.3.022h1.58V48A1.58,1.58,0,0,1,50.977,49.582ZM47.817,32.2a4.763,4.763,0,0,1-3.792-1.9l-2.844-3.792a1.58,1.58,0,0,0-1.065-.619,1.6,1.6,0,0,0-1.187.333l-5.3,4.236A7.928,7.928,0,0,1,28.7,32.2H19.379v-1.58a14.219,14.219,0,1,1,28.438,0Zm7.9,7.9a1.58,1.58,0,0,1-1.58,1.58h-3.16v-7.9h3.16a1.58,1.58,0,0,1,1.58,1.58ZM33.6,10.085A18.979,18.979,0,0,1,52.557,29.044v1.58h-1.58a17.379,17.379,0,0,0-34.758,0h-1.58v-1.58A18.979,18.979,0,0,1,33.6,10.085Zm-20.539,31.6a1.58,1.58,0,0,1-1.58-1.58v-4.74a1.58,1.58,0,0,1,1.58-1.58h3.16v7.9Zm6.32,0v-6.32H28.7a11.1,11.1,0,0,0,6.907-2.424l4.03-3.225L41.5,32.2a7.939,7.939,0,0,0,6.32,3.16v6.32a14.135,14.135,0,0,1-2.4,7.9H33.6v3.16h8.917A14.2,14.2,0,0,1,19.379,41.683ZM33.6,59.062a17.325,17.325,0,0,0,4.74-.673v2.253a4.74,4.74,0,1,1-9.479,0V58.389a17.326,17.326,0,0,0,4.74.673ZM62.036,93.82H52.557V76.441H49.4V93.82H17.8V76.441h-3.16V93.82H5.16v-13a14.153,14.153,0,0,1,8.939-13.2l11.949-4.779a7.849,7.849,0,0,0,15.1,0L53.1,67.615a14.153,14.153,0,0,1,8.939,13.2Z" transform="translate(0 0)" fill="#ea371b"/>
    <rect id="Rectangle_176" data-name="Rectangle 176" width="3.16" height="3.16" transform="translate(66.776 40.103)" fill="#ea371b"/>
    <rect id="Rectangle_177" data-name="Rectangle 177" width="3.16" height="3.16" transform="translate(66.776 81.18)" fill="#ea371b"/>
    <rect id="Rectangle_178" data-name="Rectangle 178" width="3.16" height="3.16" transform="translate(80.643 76.745) rotate(-45)" fill="#ea371b"/>
    <rect id="Rectangle_179" data-name="Rectangle 179" width="3.16" height="3.16" transform="translate(87.315 60.642)" fill="#ea371b"/>
    <rect id="Rectangle_180" data-name="Rectangle 180" width="3.16" height="3.16" transform="translate(80.644 47.699) rotate(-45)" fill="#ea371b"/>
  </g>
</svg>
