<svg id="search" xmlns="http://www.w3.org/2000/svg" width="100.927" height="100.927" viewBox="0 0 100.927 100.927">
  <path id="Path_102" data-name="Path 102" d="M87.269,84.967a50.37,50.37,0,0,0-.016-68.991L90.7,12.533a4.806,4.806,0,0,0,2.092.49A4.884,4.884,0,1,0,87.9,8.139a4.806,4.806,0,0,0,.49,2.092l-3.442,3.442A50.359,50.359,0,0,0,23,8.139H6.511A6.518,6.518,0,0,0,0,14.651V86.276a6.518,6.518,0,0,0,6.511,6.511H22.981a50.408,50.408,0,0,0,54.658.176L83.775,99.1a6.232,6.232,0,1,0,8.813-8.813ZM92.787,6.511a1.628,1.628,0,1,1-1.628,1.628A1.631,1.631,0,0,1,92.787,6.511ZM50.463,3.256A47.032,47.032,0,0,1,82.651,15.974L78.6,20.022a4.784,4.784,0,0,0-4.921.428l-8.763-6.134a4.839,4.839,0,0,0,.2-1.294,4.914,4.914,0,1,0-2.056,3.967l8.763,6.134a4.839,4.839,0,0,0-.2,1.294,4.884,4.884,0,0,0,9.767,0,4.806,4.806,0,0,0-.49-2.092l4.048-4.048a47.118,47.118,0,0,1,.014,64.386L74.353,72.052a25.816,25.816,0,0,0,3.7-11.822H94.415V56.975H91.159V30.929H81.392V56.975H78.137V40.7H68.37V56.975H65.114V30.929H55.347v1.854a26.524,26.524,0,0,0-3.256-.227V14.651A6.518,6.518,0,0,0,45.58,8.139h-16A47.02,47.02,0,0,1,50.463,3.256ZM78.137,24.418a1.628,1.628,0,1,1-1.628-1.628A1.631,1.631,0,0,1,78.137,24.418ZM61.858,13.023a1.628,1.628,0,1,1-1.628-1.628A1.631,1.631,0,0,1,61.858,13.023ZM26.128,60.23H9.767V43.952H30.575A25.886,25.886,0,0,0,26.046,58.6C26.046,59.153,26.094,59.69,26.128,60.23ZM52.091,35.813a23.109,23.109,0,0,1,3.256.259V39.35a19.8,19.8,0,0,0-3.256-.281A19.534,19.534,0,1,0,71.543,60.23H74.8A22.778,22.778,0,1,1,52.091,35.813Zm16.2,24.418a16.456,16.456,0,1,1-12.94-17.541V56.975H52.091V60.23ZM58.6,56.975V34.185h3.256v22.79Zm13.023,0V43.952h3.256V56.975Zm13.023,0V34.185H87.9v22.79ZM3.256,14.651a3.259,3.259,0,0,1,3.256-3.256H45.58a3.259,3.259,0,0,1,3.256,3.256v6.511H3.256Zm0,9.767h45.58v8.366A25.967,25.967,0,0,0,33.226,40.7H6.511v22.79H26.521a25.873,25.873,0,0,0,.845,3.256H6.511V70h22.2a26.19,26.19,0,0,0,4.519,6.511H3.256ZM6.511,89.532a3.259,3.259,0,0,1-3.256-3.256V79.764H36.965a25.851,25.851,0,0,0,11.87,4.657v1.854a3.259,3.259,0,0,1-3.256,3.256Zm43.952,8.139a47.047,47.047,0,0,1-20.87-4.884H45.58a6.518,6.518,0,0,0,6.511-6.511V84.648a25.846,25.846,0,0,0,13.45-3.783L75.274,90.6A46.99,46.99,0,0,1,50.463,97.671Zm37.719,0a2.956,2.956,0,0,1-2.1-.873L68.262,78.983a26.226,26.226,0,0,0,4.21-4.21L90.288,92.59a2.977,2.977,0,0,1-2.106,5.081Zm0,0" fill="#ea371b"/>
  <path id="Path_103" data-name="Path 103" d="M88,408h16.278v3.256H88Zm0,0" transform="translate(-70.094 -324.98)" fill="#ea371b"/>
  <path id="Path_104" data-name="Path 104" d="M32,136h3.256v3.256H32Zm0,0" transform="translate(-25.489 -108.327)" fill="#ea371b"/>
  <path id="Path_105" data-name="Path 105" d="M64,136h3.256v3.256H64Zm0,0" transform="translate(-50.977 -108.327)" fill="#ea371b"/>
  <path id="Path_106" data-name="Path 106" d="M96,136h3.256v3.256H96Zm0,0" transform="translate(-76.466 -108.327)" fill="#ea371b"/>
  <path id="Path_107" data-name="Path 107" d="M128,136h19.534v3.256H128Zm0,0" transform="translate(-101.954 -108.327)" fill="#ea371b"/>
  <path id="Path_108" data-name="Path 108" d="M32,168H51.534v3.256H32Zm0,0" transform="translate(-25.489 -133.815)" fill="#ea371b"/>
  <path id="Path_109" data-name="Path 109" d="M144,168h3.256v3.256H144Zm0,0" transform="translate(-114.699 -133.815)" fill="#ea371b"/>
</svg>
