<svg xmlns="http://www.w3.org/2000/svg" width="111.1" height="72.937" viewBox="0 0 111.1 72.937">
  <g id="stationery" transform="translate(0 -10.992)">
    <path id="Path_110" data-name="Path 110" d="M83.609,10.992H36.732A1.734,1.734,0,0,0,35,12.728V82.193a1.734,1.734,0,0,0,1.736,1.736H83.609a1.734,1.734,0,0,0,1.736-1.736V12.728a1.734,1.734,0,0,0-1.736-1.736ZM38.468,78.721h38.2v1.736h-38.2Zm5.208-3.472V14.464h38.2V75.249Zm36.461,3.472h1.736v1.736H80.137ZM38.468,14.464H40.2V75.249H38.468Z" transform="translate(25.755 0)" fill="#ea371b"/>
    <path id="Path_111" data-name="Path 111" d="M1.736,37.031H41.659A1.734,1.734,0,0,0,43.395,35.3V12.728a1.734,1.734,0,0,0-1.736-1.736H1.736A1.734,1.734,0,0,0,0,12.728V35.3A1.734,1.734,0,0,0,1.736,37.031ZM3.472,14.464H39.923v19.1H3.472Z" transform="translate(0 0)" fill="#ea371b"/>
    <path id="Path_112" data-name="Path 112" d="M1.736,54.031H41.659A1.734,1.734,0,0,0,43.395,52.3V29.728a1.734,1.734,0,0,0-1.736-1.736H1.736A1.734,1.734,0,0,0,0,29.728V52.3A1.734,1.734,0,0,0,1.736,54.031ZM3.472,31.464H39.923v19.1H3.472Z" transform="translate(0 12.511)" fill="#ea371b"/>
    <path id="Path_113" data-name="Path 113" d="M35.683,83.875a1.734,1.734,0,0,0,1.736-1.736V19.646a.144.144,0,0,0-.007-.026,1.666,1.666,0,0,0-.163-.691c-.009-.019-.005-.04-.014-.059l-3.474-6.951a1.807,1.807,0,0,0-3.106,0L27.184,18.87c-.01.019-.005.04-.014.061a1.7,1.7,0,0,0-.17.715V82.139a1.734,1.734,0,0,0,1.736,1.736Zm-4.7-59.534a1.735,1.735,0,0,0,2.455,0l.512-.512V42.015a1.718,1.718,0,0,0-1.7-1.535h-.019a1.736,1.736,0,1,0,1.715,1.937V63.041H30.474V23.835Zm-.507,43.907V66.513h3.474v1.736h0a1.736,1.736,0,0,0,0,3.472h0V73.46H30.474V71.72a1.736,1.736,0,0,0,0-3.472Zm0,12.155V76.932h3.474V80.4ZM32.21,16.578l1.359,2.72L32.208,20.66,30.85,19.3Z" transform="translate(19.87 0.033)" fill="#ea371b"/>
    <path id="Path_114" data-name="Path 114" d="M6.708,58.857a1.539,1.539,0,0,0,.236.049H20.824A1.734,1.734,0,0,0,22.56,57.17v-.028h5.208A1.734,1.734,0,0,0,29.5,55.406V48.462a1.734,1.734,0,0,0-1.736-1.736H22.56a1.736,1.736,0,0,0-1.736-1.732H6.944a6.933,6.933,0,0,0-.236,13.863ZM22.56,50.2h3.472V53.67H22.56ZM6.944,48.466H19.088v6.968H7.06c-.04,0-.075-.024-.116-.024a3.472,3.472,0,0,1,0-6.944Z" transform="translate(0 25.023)" fill="#ea371b"/>
    <path id="Path_115" data-name="Path 115" d="M23.21,44.992H19.735A1.734,1.734,0,0,0,18,46.728V57.144a1.734,1.734,0,0,0,1.736,1.736H23.21a6.944,6.944,0,1,0,0-13.887Zm0,10.416H21.471V48.464H23.21a3.472,3.472,0,1,1,0,6.944Z" transform="translate(13.246 25.022)" fill="#ea371b"/>
    <path id="Path_116" data-name="Path 116" d="M11.771,19.464a1.736,1.736,0,1,0,0-3.472h-.019a1.736,1.736,0,0,0,.019,3.472Z" transform="translate(7.378 3.68)" fill="#ea371b"/>
    <path id="Path_117" data-name="Path 117" d="M7,22.54a9.544,9.544,0,0,0,17.484,5.3,1.779,1.779,0,0,0,.108-.177A9.543,9.543,0,1,0,7,22.54Zm9.548,6.076c-.137,0-.267-.033-.4-.04l3.008-4.012,1.7,2.262a6.053,6.053,0,0,1-4.3,1.79Zm0-12.152a6.082,6.082,0,0,1,6.076,6.076,5.869,5.869,0,0,1-.078.764l-2-2.673a1.5,1.5,0,0,0-.184-.165,1.475,1.475,0,0,0-.163-.182c-.028-.021-.061-.024-.089-.042a1.836,1.836,0,0,0-.333-.16,1.806,1.806,0,0,0-.286-.1,1.577,1.577,0,0,0-.339-.019,1.831,1.831,0,0,0-.323.017,1.725,1.725,0,0,0-.3.1,1.564,1.564,0,0,0-.326.156c-.028.019-.061.023-.089.042a1.475,1.475,0,0,0-.163.182,1.5,1.5,0,0,0-.184.165l-4.98,6.64a6.049,6.049,0,0,1,3.762-10.806Z" transform="translate(5.152 1.472)" fill="#ea371b"/>
    <path id="Path_118" data-name="Path 118" d="M29.309,32.992H6.735a1.736,1.736,0,0,0,0,3.472H29.309a1.736,1.736,0,1,0,0-3.472Z" transform="translate(3.679 16.19)" fill="#ea371b"/>
    <path id="Path_119" data-name="Path 119" d="M21.888,35.992H9.737a1.736,1.736,0,1,0,0,3.472H21.888a1.736,1.736,0,1,0,0-3.472Z" transform="translate(5.888 18.398)" fill="#ea371b"/>
    <path id="Path_120" data-name="Path 120" d="M42.09,38.068a1.52,1.52,0,0,0,.106.3,1.414,1.414,0,0,0,.175.259,1.653,1.653,0,0,0,.243.273c.031.026.045.062.078.087a1.517,1.517,0,0,0,.229.12,1.674,1.674,0,0,0,.2.1,1.7,1.7,0,0,0,.611.123H71.519a1.713,1.713,0,0,0,.611-.123,1.618,1.618,0,0,0,.2-.1,1.764,1.764,0,0,0,.234-.122c.035-.026.049-.062.08-.09a1.7,1.7,0,0,0,.236-.264,1.238,1.238,0,0,0,.286-.568,1.686,1.686,0,0,0,.069-.347c0-.04.024-.076.024-.118a1.936,1.936,0,0,0-.04-.2,1.763,1.763,0,0,0-.068-.34,1.723,1.723,0,0,0-.155-.323c-.035-.057-.043-.123-.085-.181L62.489,22.67a1.6,1.6,0,0,0-.189-.17,1.672,1.672,0,0,0-.158-.177c-.028-.021-.059-.023-.087-.04a1.765,1.765,0,0,0-.337-.161,1.908,1.908,0,0,0-.285-.1,1.645,1.645,0,0,0-.333-.017,1.7,1.7,0,0,0-.326.017,1.8,1.8,0,0,0-.3.1,1.649,1.649,0,0,0-.326.154c-.031.019-.064.023-.094.043a1.6,1.6,0,0,0-.17.189,1.672,1.672,0,0,0-.177.158l-4.689,6.256-2.087-2.784a1.657,1.657,0,0,0-.193-.174,1.85,1.85,0,0,0-.156-.175c-.026-.019-.057-.023-.085-.04a1.839,1.839,0,0,0-.344-.165,1.857,1.857,0,0,0-.276-.1,1.533,1.533,0,0,0-.345-.017,1.6,1.6,0,0,0-.316.016,1.742,1.742,0,0,0-.3.1,1.585,1.585,0,0,0-.328.158c-.028.017-.059.021-.087.04a1.535,1.535,0,0,0-.158.177,1.777,1.777,0,0,0-.191.172L42.35,36.558a1.855,1.855,0,0,0-.085.177,1.781,1.781,0,0,0-.154.323,1.836,1.836,0,0,0-.069.347A1.751,1.751,0,0,0,42,37.6c0,.04.021.076.024.116a1.234,1.234,0,0,0,.062.352Zm19-11.464,6.947,9.259H54.153ZM49.815,35.863H47.2l4.34-5.788,1.307,1.743Z" transform="translate(30.911 8.105)" fill="#ea371b"/>
    <path id="Path_121" data-name="Path 121" d="M46.338,26.659A4.336,4.336,0,1,0,42,22.322,4.342,4.342,0,0,0,46.338,26.659Zm0-5.2a.864.864,0,1,1-.864.864A.867.867,0,0,1,46.338,21.458Z" transform="translate(30.911 5.147)" fill="#ea371b"/>
    <path id="Path_122" data-name="Path 122" d="M71.507,34.994H43.741a1.736,1.736,0,0,0,0,3.472H71.507a1.736,1.736,0,1,0,0-3.472Z" transform="translate(30.913 17.664)" fill="#ea371b"/>
    <path id="Path_123" data-name="Path 123" d="M71.507,37.994H43.741a1.736,1.736,0,0,0,0,3.472H71.507a1.736,1.736,0,0,0,0-3.472Z" transform="translate(30.913 19.872)" fill="#ea371b"/>
    <path id="Path_124" data-name="Path 124" d="M61.62,40.994H47.741a1.736,1.736,0,1,0,0,3.472H61.62a1.736,1.736,0,0,0,0-3.472Z" transform="translate(33.857 22.079)" fill="#ea371b"/>
    <path id="Path_125" data-name="Path 125" d="M7.768,51.472a1.736,1.736,0,1,0,0-3.472H7.751a1.736,1.736,0,0,0,.017,3.472Z" transform="translate(4.434 27.235)" fill="#ea371b"/>
  </g>
</svg>
