<svg id="laptop" xmlns="http://www.w3.org/2000/svg" width="100.922" height="100.922" viewBox="0 0 100.922 100.922">
  <path id="Path_126" data-name="Path 126" d="M48,448h3.256v3.255H48Zm0,0" transform="translate(-38.233 -356.845)" fill="#ea371b"/>
  <path id="Path_127" data-name="Path 127" d="M80,448h3.256v3.255H80Zm0,0" transform="translate(-63.722 -356.845)" fill="#ea371b"/>
  <path id="Path_128" data-name="Path 128" d="M112,448h3.256v3.255H112Zm0,0" transform="translate(-89.211 -356.845)" fill="#ea371b"/>
  <path id="Path_129" data-name="Path 129" d="M384,448h13.022v3.255H384Zm0,0" transform="translate(-305.867 -356.845)" fill="#ea371b"/>
  <path id="Path_130" data-name="Path 130" d="M97.666,84.644V30.928a8.148,8.148,0,0,0-8.139-8.139H84.644a22.789,22.789,0,0,0-45.578,0H11.394a8.148,8.148,0,0,0-8.139,8.139V84.644H0v8.139a8.148,8.148,0,0,0,8.139,8.139H92.783a8.148,8.148,0,0,0,8.139-8.139V84.644Zm-8.139-58.6a4.89,4.89,0,0,1,4.883,4.883V84.644H91.155V32.555A3.259,3.259,0,0,0,87.9,29.3H83.684a22.627,22.627,0,0,0,.7-3.256ZM43.268,16.807l17.277,7.2L66.46,41.75A19.5,19.5,0,0,1,43.268,16.807ZM69.553,40.735,63.717,23.228,76.755,10.189a19.5,19.5,0,0,1-7.2,30.545Zm-7.7-37.479a19.443,19.443,0,0,1,12.6,4.631L61.476,20.866,44.529,13.807A19.537,19.537,0,0,1,61.855,3.256ZM6.511,30.928a4.89,4.89,0,0,1,4.883-4.883H39.327a22.414,22.414,0,0,0,.7,3.256h-27a3.259,3.259,0,0,0-3.256,3.256V84.644H6.511ZM97.666,92.783a4.89,4.89,0,0,1-4.883,4.883H8.139a4.89,4.89,0,0,1-4.883-4.883V87.9H36.791A12.648,12.648,0,0,0,45.3,91.155H55.624A12.648,12.648,0,0,0,64.132,87.9H84.644V84.644H62.809l-.477.477a9.423,9.423,0,0,1-6.71,2.779H45.3a9.426,9.426,0,0,1-6.71-2.779l-.475-.477H13.022V32.555H41.3a22.739,22.739,0,0,0,41.117,0H87.9V87.9h9.767Zm0,0" fill="#ea371b"/>
  <path id="Path_131" data-name="Path 131" d="M143.483,297.767a4.856,4.856,0,0,0-2.7.822l-5.679-4.258a4.809,4.809,0,0,0,.244-1.447,4.883,4.883,0,0,0-9.767,0,4.833,4.833,0,0,0,.288,1.592l-9.116,7.294a4.786,4.786,0,0,0-5.478.239l-7.019-4.68a4.776,4.776,0,0,0,.165-1.19,4.883,4.883,0,1,0-9.767,0,4.776,4.776,0,0,0,.165,1.19l-7.019,4.68a4.832,4.832,0,0,0-2.912-.986,4.883,4.883,0,1,0,4.883,4.883,4.776,4.776,0,0,0-.165-1.19l7.019-4.68a4.792,4.792,0,0,0,5.824,0l7.019,4.68a4.786,4.786,0,0,0-.165,1.19,4.883,4.883,0,1,0,9.767,0,4.833,4.833,0,0,0-.288-1.592l9.116-7.294a4.82,4.82,0,0,0,5.27-.075l5.679,4.258a4.81,4.81,0,0,0-.244,1.447,4.883,4.883,0,1,0,4.883-4.883Zm-58.6,9.767a1.628,1.628,0,1,1,1.628-1.628A1.631,1.631,0,0,1,84.883,307.533Zm14.65-9.767a1.628,1.628,0,1,1,1.628-1.628A1.631,1.631,0,0,1,99.533,297.767Zm14.65,9.767a1.628,1.628,0,1,1,1.628-1.628A1.631,1.631,0,0,1,114.183,307.533Zm16.278-13.022a1.628,1.628,0,1,1,1.628-1.628A1.631,1.631,0,0,1,130.461,294.511Zm13.022,9.767a1.628,1.628,0,1,1,1.628-1.628A1.631,1.631,0,0,1,143.483,304.278Zm0,0" transform="translate(-63.722 -229.4)" fill="#ea371b"/>
  <path id="Path_132" data-name="Path 132" d="M106.044,176H80v22.789h26.044Zm-3.256,19.533H83.256V179.256h19.533Zm0,0" transform="translate(-63.722 -140.189)" fill="#ea371b"/>
  <path id="Path_133" data-name="Path 133" d="M112,208h13.022v3.256H112Zm0,0" transform="translate(-89.211 -165.678)" fill="#ea371b"/>
  <path id="Path_134" data-name="Path 134" d="M112,240h13.022v3.256H112Zm0,0" transform="translate(-89.211 -191.167)" fill="#ea371b"/>
  <path id="Path_135" data-name="Path 135" d="M224,256h3.256v3.255H224Zm0,0" transform="translate(-178.422 -203.911)" fill="#ea371b"/>
  <path id="Path_136" data-name="Path 136" d="M256,256h32.555v3.255H256Zm0,0" transform="translate(-203.911 -203.911)" fill="#ea371b"/>
</svg>
