<svg xmlns="http://www.w3.org/2000/svg" width="408.881" height="402.286" viewBox="0 0 408.881 402.286">
  <g id="viral-marketing" transform="translate(-8 -8)" opacity="0.051">
    <path id="Path_54" data-name="Path 54" d="M383.907,336H40.974A33.007,33.007,0,0,0,8,368.974v65.949A33.007,33.007,0,0,0,40.974,467.9H383.907a33.007,33.007,0,0,0,32.974-32.974V368.974A33.007,33.007,0,0,0,383.907,336Zm19.785,98.923a19.811,19.811,0,0,1-19.785,19.785H40.974A19.811,19.811,0,0,1,21.19,434.923V388.759h382.5Zm0-59.354H21.19v-6.6A19.811,19.811,0,0,1,40.974,349.19H383.907a19.811,19.811,0,0,1,19.785,19.784Z" transform="translate(0 -57.611)" fill="#4e4e4e"/>
    <ellipse id="Ellipse_1" data-name="Ellipse 1" cx="6.5" cy="6" rx="6.5" ry="6" transform="translate(33.951 297.286)" fill="#4e4e4e"/>
    <ellipse id="Ellipse_2" data-name="Ellipse 2" cx="7.5" cy="6" rx="7.5" ry="6" transform="translate(53.951 297.286)" fill="#4e4e4e"/>
    <ellipse id="Ellipse_3" data-name="Ellipse 3" cx="7.5" cy="6" rx="7.5" ry="6" transform="translate(72.951 297.286)" fill="#4e4e4e"/>
    <path id="Path_55" data-name="Path 55" d="M54.595,469.189h46.164a6.595,6.595,0,1,0,0-13.189H54.595a6.595,6.595,0,1,0,0,13.189Z" transform="translate(-7.026 -78.688)" fill="#4e4e4e"/>
    <path id="Path_56" data-name="Path 56" d="M134.595,469.189h6.595a6.595,6.595,0,1,0,0-13.189h-6.595a6.595,6.595,0,1,0,0,13.189Z" transform="translate(-21.077 -78.688)" fill="#4e4e4e"/>
    <path id="Path_57" data-name="Path 57" d="M185.949,112.974a32.974,32.974,0,1,0-32.974,32.974A32.974,32.974,0,0,0,185.949,112.974Zm-32.974,19.785a19.785,19.785,0,1,1,19.785-19.785A19.785,19.785,0,0,1,152.974,132.759Z" transform="translate(-19.672 -12.646)" fill="#4e4e4e"/>
    <path id="Path_58" data-name="Path 58" d="M215.682,48H70.595A6.6,6.6,0,0,0,64,54.595V239.251a6.6,6.6,0,0,0,6.595,6.595h56.18l24.4,30.5a6.615,6.615,0,0,0,5.152,2.473,6.683,6.683,0,0,0,2.185-.371,6.6,6.6,0,0,0,4.41-6.224V245.846h52.759a6.6,6.6,0,0,0,6.595-6.595V54.595A6.6,6.6,0,0,0,215.682,48Zm-6.595,184.656H156.328a6.6,6.6,0,0,0-6.595,6.595v14.171L135.1,235.129a6.6,6.6,0,0,0-5.152-2.473H77.19V61.19h131.9Z" transform="translate(-9.836 -7.026)" fill="#4e4e4e"/>
    <path id="Path_59" data-name="Path 59" d="M155.354,160h-13.19A46.215,46.215,0,0,0,96,206.164v26.379a6.6,6.6,0,0,0,6.595,6.595h92.328a6.6,6.6,0,0,0,6.595-6.595V206.164A46.215,46.215,0,0,0,155.354,160Zm32.974,65.949H109.19V206.164a33.007,33.007,0,0,1,32.974-32.974h13.19a33.007,33.007,0,0,1,32.974,32.974Z" transform="translate(-15.457 -26.698)" fill="#4e4e4e"/>
    <path id="Path_60" data-name="Path 60" d="M428.872,8H270.595A6.6,6.6,0,0,0,264,14.595V199.251a6.6,6.6,0,0,0,6.595,6.595h32.974V265.2a6.595,6.595,0,0,0,11.714,4.155l51.6-63.508h61.983a6.6,6.6,0,0,0,6.595-6.595V14.595A6.6,6.6,0,0,0,428.872,8Zm-6.6,184.656H363.747a6.6,6.6,0,0,0-5.119,2.44l-41.869,51.531V199.251a6.6,6.6,0,0,0-6.595-6.595H277.19V21.19H422.277Z" transform="translate(-44.964)" fill="#4e4e4e"/>
    <path id="Path_61" data-name="Path 61" d="M360.974,40a32.974,32.974,0,1,0,32.974,32.974A32.974,32.974,0,0,0,360.974,40Zm0,52.759a19.785,19.785,0,1,1,19.785-19.785A19.785,19.785,0,0,1,360.974,92.759Z" transform="translate(-56.206 -5.621)" fill="#4e4e4e"/>
    <path id="Path_62" data-name="Path 62" d="M363.354,120h-13.19A46.215,46.215,0,0,0,304,166.164v26.379a6.6,6.6,0,0,0,6.595,6.595h92.328a6.6,6.6,0,0,0,6.6-6.595V166.164A46.215,46.215,0,0,0,363.354,120Zm32.974,65.949H317.19V166.164a33.007,33.007,0,0,1,32.974-32.974h13.19a33.007,33.007,0,0,1,32.974,32.974Z" transform="translate(-51.99 -19.672)" fill="#4e4e4e"/>
  </g>
</svg>
