<svg id="whatsapp" xmlns="http://www.w3.org/2000/svg" width="19.878" height="19.878" viewBox="0 0 19.878 19.878">
  <path id="Path_1" data-name="Path 1" d="M9.942,0h0A9.933,9.933,0,0,0,1.892,15.765L.653,19.457l3.82-1.221A9.937,9.937,0,1,0,9.942,0Z" fill="#4caf50"/>
  <path id="Path_2" data-name="Path 2" d="M118.824,126.577a2.8,2.8,0,0,1-1.951,1.4c-.519.111-1.2.2-3.481-.748a12.451,12.451,0,0,1-4.948-4.371,5.677,5.677,0,0,1-1.18-3,3.173,3.173,0,0,1,1.016-2.419,1.444,1.444,0,0,1,1.016-.357c.123,0,.234.006.333.011.292.012.439.03.631.491.24.578.824,2,.893,2.151a.592.592,0,0,1,.042.538,1.717,1.717,0,0,1-.322.456c-.147.169-.286.3-.432.48-.134.158-.286.327-.117.619a8.822,8.822,0,0,0,1.613,2,7.308,7.308,0,0,0,2.331,1.437.628.628,0,0,0,.7-.111,12.029,12.029,0,0,0,.776-1.029.555.555,0,0,1,.713-.216c.268.093,1.688.8,1.98.94s.485.216.555.339A2.476,2.476,0,0,1,118.824,126.577Z" transform="translate(-103.099 -112.542)" fill="#fafafa"/>
</svg>
